<svg width="249" height="150" viewBox="0 0 249 150" fill="none" xmlns="http://www.w3.org/2000/svg">
<path d="M31.609 24.712C31.463 25.3447 31.1223 25.8313 30.587 26.172C30.0517 26.464 29.4677 26.537 28.835 26.391C28.2023 26.245 27.7157 25.88 27.375 25.296L25.915 22.814C24.9417 21.208 24.163 20.0157 23.579 19.237C23.0437 18.5557 22.2407 17.8013 21.17 16.974C20.2453 16.244 19.2477 15.806 18.177 15.66C17.301 15.5627 16.4737 15.7817 15.695 16.317C14.7217 16.9983 13.7483 18.0447 12.775 19.456C11.8017 20.8673 11.023 22.522 10.439 24.42C9.90367 26.0747 9.83067 27.632 10.22 29.092C10.512 30.3573 11.3637 31.428 12.775 32.304C14.381 33.326 15.8167 33.9587 17.082 34.202C18.5907 34.494 20.2453 34.7617 22.046 35.005C24.1387 35.2483 25.8177 35.7107 27.083 36.392C28.3483 37.0733 29.2973 37.7547 29.93 38.436C30.514 39.02 31.171 39.8473 31.901 40.918C32.8257 42.232 33.3853 43.7893 33.58 45.59C33.7747 47.2447 33.726 48.9967 33.434 50.846C33.0933 52.8413 32.3147 54.6907 31.098 56.394C29.93 58.0487 28.4213 59.5087 26.572 60.774C24.7227 62.088 22.5813 63.037 20.148 63.621C17.6173 64.205 15.1353 64.2293 12.702 63.694C10.1713 63.11 8.07867 62.0393 6.424 60.482C4.818 58.9733 3.77167 57.416 3.285 55.81C2.74967 54.058 2.72533 52.5493 3.212 51.284L3.65 50.116C3.84467 49.4833 4.234 49.0453 4.818 48.802C5.45067 48.51 6.059 48.4857 6.643 48.729C7.227 48.9723 7.64067 49.386 7.884 49.97C8.176 50.554 8.22467 51.138 8.03 51.722L7.592 52.89C7.446 53.182 7.49467 53.693 7.738 54.423C7.98133 55.2503 8.614 56.1507 9.636 57.124C10.658 58.0487 12.0207 58.7057 13.724 59.095C15.476 59.533 17.2523 59.533 19.053 59.095C20.9023 58.657 22.5083 57.9513 23.871 56.978C25.2823 56.0047 26.426 54.9097 27.302 53.693C28.0807 52.5737 28.5673 51.357 28.762 50.043C29.0053 48.6317 29.0783 47.3177 28.981 46.101C28.835 45.079 28.543 44.2273 28.105 43.546C27.4723 42.67 26.9613 42.0373 26.572 41.648C26.28 41.3073 25.7203 40.9423 24.893 40.553C24.163 40.115 22.995 39.7987 21.389 39.604C19.5397 39.3607 17.812 39.093 16.206 38.801C14.4053 38.4603 12.4343 37.6087 10.293 36.246C7.85967 34.7373 6.32667 32.742 5.694 30.26C5.06133 27.9727 5.13433 25.5637 5.913 23.033C6.643 20.697 7.64067 18.6043 8.906 16.755C10.22 14.9057 11.607 13.47 13.067 12.448C14.7703 11.2313 16.6683 10.769 18.761 11.061C20.7077 11.3043 22.4597 12.0343 24.017 13.251C25.4283 14.3217 26.5233 15.368 27.302 16.39C27.9833 17.3147 28.8593 18.653 29.93 20.405L31.39 22.96C31.7307 23.4953 31.8037 24.0793 31.609 24.712ZM40.515 39.312C39.931 38.9713 39.566 38.4847 39.42 37.852C39.274 37.2193 39.347 36.6353 39.639 36.1L40.515 34.713C40.4663 33.0583 40.442 31.355 40.442 29.603C40.3933 26.975 40.4177 24.3957 40.515 21.865C40.6123 19.3343 40.734 17.3147 40.88 15.806C40.9773 14.3947 41.0503 12.8373 41.099 11.134L41.172 8.579C41.172 7.89766 41.4153 7.338 41.902 6.9C42.3887 6.462 42.9483 6.26733 43.581 6.316C44.2137 6.316 44.749 6.55933 45.187 7.046C45.625 7.484 45.844 8.01933 45.844 8.652L45.771 11.28C45.7223 13.0807 45.6493 14.7353 45.552 16.244C45.406 17.6553 45.2843 19.5777 45.187 22.011C45.1383 24.2497 45.114 26.5127 45.114 28.8C45.7953 28.1187 46.5253 27.5347 47.304 27.048C48.5207 26.2207 49.713 25.5637 50.881 25.077C52.1463 24.493 53.5333 24.128 55.042 23.982C56.4047 23.836 57.451 23.7873 58.181 23.836C58.911 23.9333 59.7627 24.1523 60.736 24.493C61.8067 24.8823 62.707 25.3933 63.437 26.026C64.167 26.6587 64.8727 27.6077 65.554 28.873C66.138 29.9923 66.6247 31.1117 67.014 32.231C67.4033 33.4477 67.6467 34.6157 67.744 35.735C67.8413 36.757 67.89 37.8763 67.89 39.093C67.89 40.407 67.8413 41.4533 67.744 42.232C67.598 43.0107 67.4033 43.8867 67.16 44.86C66.9653 45.8333 66.722 46.758 66.43 47.634C66.1867 48.6073 65.919 49.459 65.627 50.189C65.3837 50.8703 65.189 51.4057 65.043 51.795C64.9457 52.087 64.824 52.4033 64.678 52.744C64.5807 52.9873 64.5077 53.2793 64.459 53.62C64.313 54.058 64.167 54.496 64.021 54.934L63.802 55.518C63.5587 56.1507 63.145 56.613 62.561 56.905C61.977 57.1483 61.3687 57.1483 60.736 56.905C60.152 56.6617 59.714 56.248 59.422 55.664C59.1787 55.08 59.1787 54.496 59.422 53.912L59.641 53.328C59.7383 53.036 59.8357 52.7197 59.933 52.379C60.0303 51.941 60.152 51.5273 60.298 51.138C60.444 50.7973 60.59 50.4323 60.736 50.043C60.8333 49.751 61.0037 49.2643 61.247 48.583C61.4903 47.9503 61.7337 47.2203 61.977 46.393C62.2203 45.5657 62.4393 44.6897 62.634 43.765C62.8287 42.889 62.9747 42.159 63.072 41.575C63.1693 40.991 63.218 40.188 63.218 39.166C63.218 38.0467 63.1693 37.0247 63.072 36.1C63.0233 35.37 62.853 34.5913 62.561 33.764C62.269 32.8393 61.8797 31.939 61.393 31.063C61.0037 30.333 60.663 29.8463 60.371 29.603C60.079 29.311 59.6653 29.0677 59.13 28.873C58.546 28.6783 58.0593 28.5567 57.67 28.508C57.2807 28.4593 56.5507 28.508 55.48 28.654C54.5067 28.7513 53.6063 28.9703 52.779 29.311C51.8543 29.749 50.881 30.2843 49.859 30.917C48.9343 31.5497 48.0583 32.304 47.231 33.18C46.501 34.0073 45.8197 34.932 45.187 35.954C45.187 36.2947 45.187 36.5867 45.187 36.83C45.2357 39.166 45.26 41.1127 45.26 42.67C45.26 44.1787 45.2843 45.4927 45.333 46.612C45.3817 47.78 45.406 48.656 45.406 49.24C45.4547 49.824 45.5033 50.408 45.552 50.992C45.6493 51.576 45.698 52.0627 45.698 52.452C45.7467 52.9387 45.771 53.401 45.771 53.839C45.771 54.277 45.7467 54.6907 45.698 55.08L45.625 55.591C45.5763 56.2237 45.2843 56.759 44.749 57.197C44.2623 57.5863 43.7027 57.7567 43.07 57.708C42.4373 57.6107 41.902 57.3187 41.464 56.832C41.0747 56.2967 40.9287 55.7127 41.026 55.08L41.099 54.569C41.099 54.3257 41.099 54.0823 41.099 53.839C41.099 53.547 41.099 53.2307 41.099 52.89C41.0503 52.5007 41.0017 52.0383 40.953 51.503C40.8557 50.8217 40.7827 50.1647 40.734 49.532C40.734 48.8993 40.7097 47.999 40.661 46.831C40.6123 45.663 40.588 44.276 40.588 42.67C40.588 41.6967 40.5637 40.5773 40.515 39.312ZM97.2925 47.05C97.0491 46.32 96.7571 45.7603 96.4165 45.371C95.9298 44.8843 95.0295 44.349 93.7155 43.765C92.3041 43.0837 90.7711 42.5727 89.1165 42.232C87.5105 41.8427 86.0018 41.6723 84.5905 41.721C83.4225 41.7697 82.3518 42.086 81.3785 42.67C80.4538 43.2053 79.6995 44.0327 79.1155 45.152C78.5315 46.2713 78.2151 47.1473 78.1665 47.78C78.1665 48.2667 78.3611 48.948 78.7505 49.824C79.1398 50.554 79.9671 51.211 81.2325 51.795C82.7411 52.4763 84.5418 53.0117 86.6345 53.401C88.6785 53.693 90.6008 53.6687 92.4015 53.328C94.2995 52.9873 95.7351 52.5493 96.7085 52.014L97.0005 51.868C97.0491 51.284 97.0978 50.554 97.1465 49.678C97.1951 48.8993 97.2438 48.0233 97.2925 47.05ZM96.9275 56.978C95.9055 57.3187 94.7131 57.635 93.3505 57.927C90.9658 58.4137 88.4838 58.438 85.9045 58C83.3738 57.562 81.1595 56.905 79.2615 56.029C77.0715 55.007 75.5385 53.6443 74.6625 51.941C73.7865 50.335 73.3971 48.8507 73.4945 47.488C73.5918 46.174 74.1028 44.641 75.0275 42.889C76.0008 41.0883 77.3148 39.677 78.9695 38.655C80.6241 37.633 82.4491 37.0977 84.4445 37.049C86.2451 37.0003 88.1431 37.195 90.1385 37.633C92.1338 38.1197 93.9831 38.7523 95.6865 39.531C96.1731 39.7743 96.6598 40.0177 97.1465 40.261C97.0005 38.509 96.7085 36.7813 96.2705 35.078C95.6865 32.6933 94.9078 30.8683 93.9345 29.603C93.0585 28.581 92.3528 28.0457 91.8175 27.997C91.1361 27.8997 90.1628 28.1673 88.8975 28.8C87.6321 29.384 86.7318 30.1627 86.1965 31.136C85.8558 31.7687 85.6125 32.2553 85.4665 32.596V32.815C85.6125 33.4477 85.5151 34.0317 85.1745 34.567C84.8825 35.1023 84.4201 35.4673 83.7875 35.662C83.1548 35.808 82.5465 35.7107 81.9625 35.37C81.4271 35.0293 81.0865 34.5427 80.9405 33.91L80.7945 33.326C80.7458 33.034 80.7215 32.742 80.7215 32.45C80.7215 32.158 80.7215 31.9147 80.7215 31.72C80.7701 31.4767 80.8431 31.209 80.9405 30.917C81.0865 30.625 81.2081 30.406 81.3055 30.26C81.4028 30.114 81.5245 29.895 81.6705 29.603C81.8651 29.2623 82.0111 29.019 82.1085 28.873C83.1305 27.0237 84.7121 25.588 86.8535 24.566C88.9948 23.544 90.8441 23.1303 92.4015 23.325C94.2021 23.5683 95.9055 24.6877 97.5115 26.683C98.9715 28.4837 100.066 30.917 100.796 33.983C101.526 36.8543 101.916 39.75 101.964 42.67C101.964 44.0327 101.964 45.298 101.964 46.466C102.256 47.926 102.329 49.678 102.183 51.722C102.037 53.9607 101.794 55.4693 101.453 56.248C101.453 56.3453 101.429 56.4913 101.38 56.686C101.38 56.832 101.283 57.0753 101.088 57.416C100.942 57.7567 100.748 58.0243 100.504 58.219C100.261 58.4137 99.8961 58.4867 99.4095 58.438C98.9228 58.3893 98.3631 58.1703 97.7305 57.781L96.9275 56.978ZM114.862 51.065C115.105 51.2597 115.349 51.4543 115.592 51.649C116.273 52.1357 117.028 52.525 117.855 52.817C118.634 53.109 119.364 53.255 120.045 53.255C120.824 53.255 121.627 53.1577 122.454 52.963C123.233 52.7683 124.084 52.4277 125.009 51.941C125.982 51.4543 126.931 50.773 127.856 49.897C128.829 49.021 129.535 48.291 129.973 47.707C130.362 47.1717 130.825 46.2713 131.36 45.006C131.895 43.7893 132.26 42.3537 132.455 40.699C132.698 38.947 132.747 37.3167 132.601 35.808C132.552 34.4453 132.26 33.3017 131.725 32.377C131.141 31.355 130.508 30.552 129.827 29.968C129.146 29.4327 128.44 29.092 127.71 28.946C126.931 28.8 126.031 28.873 125.009 29.165C123.987 29.4083 123.038 29.968 122.162 30.844C121.14 31.8173 120.191 33.0097 119.315 34.421C118.488 35.8323 117.806 37.3897 117.271 39.093C116.736 40.9423 116.225 42.9133 115.738 45.006C115.3 46.9527 115.008 48.9723 114.862 51.065ZM115.008 56.686C114.667 57.27 114.254 57.635 113.767 57.781C113.329 57.927 112.891 57.927 112.453 57.781C112.064 57.5863 111.674 57.3673 111.285 57.124C110.944 56.832 110.677 56.5643 110.482 56.321L110.19 55.956C110.093 55.372 110.068 54.4473 110.117 53.182C110.117 53.0847 110.093 52.9873 110.044 52.89C109.703 52.5007 109.509 52.0383 109.46 51.503C109.411 50.919 109.533 50.3837 109.825 49.897C109.776 48.729 109.703 47.415 109.606 45.955C109.509 44.057 109.436 41.867 109.387 39.385C109.387 36.8543 109.411 34.348 109.46 31.866C109.557 29.4327 109.557 26.9263 109.46 24.347C109.363 21.7677 109.241 19.456 109.095 17.412C108.949 15.4167 108.779 13.8593 108.584 12.74C108.438 11.6207 108.316 10.8177 108.219 10.331L108 9.455C107.854 8.871 107.951 8.31133 108.292 7.776C108.633 7.192 109.095 6.827 109.679 6.681C110.312 6.535 110.896 6.63233 111.431 6.973C112.015 7.31366 112.38 7.80033 112.526 8.433L112.745 9.236C112.891 9.82 113.061 10.7447 113.256 12.01C113.451 13.2753 113.621 14.9787 113.767 17.12C113.913 19.164 114.035 21.5243 114.132 24.201C114.229 26.8777 114.229 29.4813 114.132 32.012C114.132 32.742 114.132 33.4963 114.132 34.275C114.473 33.4963 114.862 32.742 115.3 32.012C116.371 30.26 117.587 28.7513 118.95 27.486C120.41 26.0747 122.016 25.1257 123.768 24.639C125.52 24.201 127.126 24.128 128.586 24.42C130.095 24.712 131.482 25.3447 132.747 26.318C133.915 27.2913 134.937 28.5323 135.813 30.041C136.689 31.647 137.176 33.4477 137.273 35.443C137.419 37.2923 137.37 39.2147 137.127 41.21C136.884 43.3513 136.397 45.225 135.667 46.831C134.986 48.437 134.329 49.6537 133.696 50.481C133.063 51.3083 132.163 52.2817 130.995 53.401C129.778 54.4717 128.513 55.372 127.199 56.102C125.934 56.7833 124.693 57.27 123.476 57.562C122.308 57.8053 121.164 57.927 120.045 57.927C118.828 57.927 117.563 57.6837 116.249 57.197C115.811 57.051 115.397 56.8807 115.008 56.686ZM144.825 26.683C145.311 26.245 145.871 26.0503 146.504 26.099C147.136 26.099 147.672 26.3423 148.11 26.829C148.596 27.267 148.815 27.8023 148.767 28.435V28.508C150.129 27.6807 151.565 27.0967 153.074 26.756C155.312 26.2207 157.137 26.1963 158.549 26.683C160.106 27.2183 161.42 28.3133 162.491 29.968C163.561 31.72 163.829 33.6667 163.294 35.808C162.758 37.8033 161.444 39.4823 159.352 40.845C159.206 40.9423 159.06 41.0397 158.914 41.137C159.352 41.6237 159.741 42.1347 160.082 42.67C160.958 43.984 162.028 45.3223 163.294 46.685C164.462 47.999 165.557 48.948 166.579 49.532C167.211 49.8727 167.674 50.116 167.966 50.262H168.185C168.817 50.262 169.353 50.5053 169.791 50.992C170.229 51.4787 170.423 52.0383 170.375 52.671C170.375 53.3037 170.131 53.839 169.645 54.277C169.207 54.715 168.671 54.934 168.039 54.934H167.601C167.26 54.934 166.919 54.8853 166.579 54.788C166.238 54.6907 165.995 54.6177 165.849 54.569C165.703 54.4717 165.411 54.3013 164.973 54.058C164.583 53.8147 164.34 53.6443 164.243 53.547C162.831 52.7197 161.371 51.503 159.863 49.897C158.403 48.3397 157.162 46.7823 156.14 45.225C155.604 44.349 154.996 43.6433 154.315 43.108C153.049 43.4 151.808 43.4973 150.592 43.4C149.716 43.3513 149.107 43.2783 148.767 43.181C148.815 44.495 148.815 45.736 148.767 46.904C148.767 48.7047 148.694 50.116 148.548 51.138C148.402 52.16 148.183 53.036 147.891 53.766L147.599 54.569C147.404 55.2017 146.99 55.664 146.358 55.956C145.774 56.1993 145.19 56.2237 144.606 56.029C144.022 55.7857 143.584 55.372 143.292 54.788C143 54.204 142.975 53.5957 143.219 52.963L143.511 52.16C143.657 51.722 143.803 51.138 143.949 50.408C144.046 49.6293 144.095 48.4613 144.095 46.904C144.143 45.2493 144.119 43.4973 144.022 41.648C143.973 40.2853 143.949 38.8983 143.949 37.487C143.073 36.7083 142.854 35.808 143.292 34.786L143.876 33.399C143.924 33.3503 143.949 33.2773 143.949 33.18C143.997 32.2067 144.022 31.3307 144.022 30.552L144.095 28.289C144.143 27.6563 144.387 27.121 144.825 26.683ZM148.621 38.363L150.081 37.633C151.735 37.341 153.317 37.487 154.826 38.071C155.41 37.779 156.067 37.3897 156.797 36.903C157.867 36.2217 158.524 35.443 158.768 34.567C158.962 33.7883 158.865 33.0827 158.476 32.45C158.038 31.72 157.575 31.282 157.089 31.136C156.505 30.8927 155.531 30.9413 154.169 31.282C152.709 31.6227 151.395 32.2553 150.227 33.18C149.545 33.6667 149.01 34.129 148.621 34.567C148.621 34.9563 148.621 35.37 148.621 35.808C148.621 35.808 148.621 36.6597 148.621 38.363ZM176.079 12.229C176.079 11.5477 176.298 10.988 176.736 10.55C177.174 10.112 177.71 9.893 178.342 9.893C179.024 9.893 179.583 10.112 180.021 10.55L180.313 10.769C180.751 11.207 180.97 11.7667 180.97 12.448C180.97 13.0807 180.727 13.6403 180.24 14.127C179.802 14.565 179.267 14.784 178.634 14.784C178.002 14.784 177.442 14.5407 176.955 14.054L176.736 13.835C176.298 13.397 176.079 12.8617 176.079 12.229ZM178.269 23.836C178.805 23.398 179.389 23.2277 180.021 23.325C180.654 23.3737 181.165 23.6657 181.554 24.201C181.944 24.6877 182.114 25.2473 182.065 25.88L181.992 26.537C181.944 26.975 181.798 27.997 181.554 29.603C181.36 31.063 181.262 32.6447 181.262 34.348C181.262 36.1487 181.287 37.852 181.335 39.458C181.384 41.1127 181.408 42.6457 181.408 44.057C181.408 45.4197 181.408 46.758 181.408 48.072C181.408 49.386 181.433 50.335 181.481 50.919C181.481 51.5517 181.481 52.233 181.481 52.963C181.481 53.5957 181.481 54.058 181.481 54.35V54.861C181.481 55.4937 181.262 56.0533 180.824 56.54C180.386 56.978 179.851 57.2213 179.218 57.27C178.586 57.27 178.026 57.051 177.539 56.613C177.053 56.175 176.809 55.6397 176.809 55.007V54.496C176.809 54.1553 176.809 53.62 176.809 52.89C176.809 52.2087 176.809 51.576 176.809 50.992C176.761 50.3593 176.736 49.386 176.736 48.072C176.736 46.758 176.736 45.4197 176.736 44.057C176.736 42.6943 176.712 41.21 176.663 39.604C176.615 37.9493 176.59 36.1973 176.59 34.348C176.59 32.4013 176.712 30.5763 176.955 28.873C177.15 27.3643 177.272 26.4153 177.32 26.026L177.393 25.369C177.491 24.7363 177.783 24.2253 178.269 23.836ZM188.793 24.274C189.231 23.7873 189.766 23.544 190.399 23.544C191.031 23.4953 191.591 23.69 192.078 24.128C192.564 24.566 192.832 25.1013 192.881 25.734V26.172C192.881 26.318 192.881 26.537 192.881 26.829C193.951 25.9043 194.998 25.15 196.02 24.566C197.626 23.5927 199.28 23.1303 200.984 23.179C202.541 23.2277 203.758 23.4467 204.634 23.836C205.51 24.274 206.386 25.0527 207.262 26.172C208.089 27.1453 208.819 28.435 209.452 30.041C210.036 31.5983 210.474 33.2287 210.766 34.932C211.009 36.538 211.155 37.8033 211.204 38.728C211.301 39.604 211.35 40.7963 211.35 42.305C211.398 43.765 211.374 45.1033 211.277 46.32C211.228 47.488 211.179 48.51 211.131 49.386C211.033 50.2133 210.985 50.9677 210.985 51.649C210.985 52.4277 210.96 53.0603 210.912 53.547C210.912 53.985 210.887 54.3743 210.839 54.715V55.372C210.79 56.0047 210.522 56.54 210.036 56.978C209.549 57.416 208.989 57.6107 208.357 57.562C207.724 57.5133 207.189 57.27 206.751 56.832C206.313 56.3453 206.118 55.7613 206.167 55.08V54.496C206.215 54.1067 206.24 53.693 206.24 53.255C206.288 52.817 206.313 52.2573 206.313 51.576C206.313 50.7973 206.361 49.97 206.459 49.094C206.507 48.218 206.556 47.196 206.605 46.028C206.702 44.9573 206.726 43.7407 206.678 42.378C206.678 41.0153 206.629 39.9447 206.532 39.166C206.483 38.3387 206.337 37.1707 206.094 35.662C205.899 34.2507 205.558 32.9367 205.072 31.72C204.634 30.6007 204.171 29.7247 203.685 29.092C203.198 28.508 202.833 28.1673 202.59 28.07C202.346 27.924 201.762 27.851 200.838 27.851C200.059 27.8023 199.256 28.0213 198.429 28.508C197.407 29.1893 196.287 30.0653 195.071 31.136C193.951 32.2067 193.27 32.9367 193.027 33.326C192.881 33.5207 192.783 33.7153 192.735 33.91C192.686 34.786 192.637 35.7593 192.589 36.83C192.491 39.5067 192.443 42.1833 192.443 44.86C192.443 47.5367 192.491 49.7023 192.589 51.357C192.686 53.0603 192.759 54.1553 192.808 54.642V55.226C192.856 55.9073 192.637 56.4913 192.151 56.978C191.713 57.416 191.177 57.6593 190.545 57.708C189.912 57.708 189.352 57.489 188.866 57.051C188.428 56.613 188.184 56.0777 188.136 55.445V54.788C188.087 54.3987 188.014 53.3523 187.917 51.649C187.819 49.897 187.771 47.634 187.771 44.86C187.771 42.1347 187.819 39.385 187.917 36.611C187.965 36.173 187.99 35.7593 187.99 35.37C187.892 35.078 187.868 34.7617 187.917 34.421L187.99 33.545C188.038 33.4477 188.063 33.3503 188.063 33.253C188.111 31.9877 188.16 30.7953 188.209 29.676C188.209 27.8267 188.209 26.756 188.209 26.464V25.953C188.16 25.3203 188.355 24.7607 188.793 24.274ZM240.869 47.05C240.625 46.32 240.333 45.7603 239.993 45.371C239.506 44.8843 238.606 44.349 237.292 43.765C235.88 43.0837 234.347 42.5727 232.693 42.232C231.087 41.8427 229.578 41.6723 228.167 41.721C226.999 41.7697 225.928 42.086 224.955 42.67C224.03 43.2053 223.276 44.0327 222.692 45.152C222.108 46.2713 221.791 47.1473 221.743 47.78C221.743 48.2667 221.937 48.948 222.327 49.824C222.716 50.554 223.543 51.211 224.809 51.795C226.317 52.4763 228.118 53.0117 230.211 53.401C232.255 53.693 234.177 53.6687 235.978 53.328C237.876 52.9873 239.311 52.5493 240.285 52.014L240.577 51.868C240.625 51.284 240.674 50.554 240.723 49.678C240.771 48.8993 240.82 48.0233 240.869 47.05ZM240.504 56.978C239.482 57.3187 238.289 57.635 236.927 57.927C234.542 58.4137 232.06 58.438 229.481 58C226.95 57.562 224.736 56.905 222.838 56.029C220.648 55.007 219.115 53.6443 218.239 51.941C217.363 50.335 216.973 48.8507 217.071 47.488C217.168 46.174 217.679 44.641 218.604 42.889C219.577 41.0883 220.891 39.677 222.546 38.655C224.2 37.633 226.025 37.0977 228.021 37.049C229.821 37.0003 231.719 37.195 233.715 37.633C235.71 38.1197 237.559 38.7523 239.263 39.531C239.749 39.7743 240.236 40.0177 240.723 40.261C240.577 38.509 240.285 36.7813 239.847 35.078C239.263 32.6933 238.484 30.8683 237.511 29.603C236.635 28.581 235.929 28.0457 235.394 27.997C234.712 27.8997 233.739 28.1673 232.474 28.8C231.208 29.384 230.308 30.1627 229.773 31.136C229.432 31.7687 229.189 32.2553 229.043 32.596V32.815C229.189 33.4477 229.091 34.0317 228.751 34.567C228.459 35.1023 227.996 35.4673 227.364 35.662C226.731 35.808 226.123 35.7107 225.539 35.37C225.003 35.0293 224.663 34.5427 224.517 33.91L224.371 33.326C224.322 33.034 224.298 32.742 224.298 32.45C224.298 32.158 224.298 31.9147 224.298 31.72C224.346 31.4767 224.419 31.209 224.517 30.917C224.663 30.625 224.784 30.406 224.882 30.26C224.979 30.114 225.101 29.895 225.247 29.603C225.441 29.2623 225.587 29.019 225.685 28.873C226.707 27.0237 228.288 25.588 230.43 24.566C232.571 23.544 234.42 23.1303 235.978 23.325C237.778 23.5683 239.482 24.6877 241.088 26.683C242.548 28.4837 243.643 30.917 244.373 33.983C245.103 36.8543 245.492 39.75 245.541 42.67C245.541 44.0327 245.541 45.298 245.541 46.466C245.833 47.926 245.906 49.678 245.76 51.722C245.614 53.9607 245.37 55.4693 245.03 56.248C245.03 56.3453 245.005 56.4913 244.957 56.686C244.957 56.832 244.859 57.0753 244.665 57.416C244.519 57.7567 244.324 58.0243 244.081 58.219C243.837 58.4137 243.472 58.4867 242.986 58.438C242.499 58.3893 241.939 58.1703 241.307 57.781L240.504 56.978Z" fill="#A96191"/>
<path d="M53.796 98.493C53.2607 98.1037 52.9443 97.5927 52.847 96.96C52.7497 96.3273 52.8957 95.7433 53.285 95.208L53.869 94.478C53.9663 94.332 54.0637 94.1617 54.161 93.967C54.161 93.9183 54.1853 93.8697 54.234 93.821C54.234 91.9717 54.2583 90.6333 54.307 89.806L54.38 88.565C54.4287 87.9323 54.6963 87.397 55.183 86.959C55.6697 86.521 56.2293 86.3263 56.862 86.375C57.4947 86.375 58.03 86.6183 58.468 87.105C58.906 87.5917 59.1007 88.1513 59.052 88.784L58.979 89.514C59.709 88.9787 60.4877 88.5407 61.315 88.2C62.9697 87.3727 64.8677 86.813 67.009 86.521C69.199 86.229 70.9997 86.229 72.411 86.521C73.8223 86.813 75.3067 87.3727 76.864 88.2C78.5187 89.076 79.9057 90.2197 81.025 91.631C81.9983 92.8477 82.8013 93.894 83.434 94.77C84.0667 95.7433 84.6993 96.9357 85.332 98.347C86.0133 99.807 86.573 101.34 87.011 102.946C87.449 104.552 87.7167 106.109 87.814 107.618C87.9113 109.224 87.6923 111.049 87.157 113.093C86.6703 115.137 85.989 116.865 85.113 118.276C84.2857 119.59 83.3123 120.831 82.193 121.999C81.1223 123.167 80.0517 124.165 78.981 124.992C77.959 125.771 76.8883 126.452 75.769 127.036C74.6983 127.62 73.6277 128.155 72.557 128.642C71.4377 129.129 70.3183 129.518 69.199 129.81C68.1283 130.102 67.0577 130.321 65.987 130.467C64.9163 130.613 63.87 130.71 62.848 130.759C61.7773 130.759 60.7067 130.637 59.636 130.394V130.686C59.636 131.319 59.3927 131.854 58.906 132.292C58.468 132.73 57.9083 132.949 57.227 132.949C56.5943 132.949 56.059 132.706 55.621 132.219C55.183 131.781 54.964 131.246 54.964 130.613V130.102C54.964 129.761 54.964 129.299 54.964 128.715C55.0127 128.228 55.0127 127.839 54.964 127.547C54.964 127.206 54.9397 126.768 54.891 126.233C54.8423 125.6 54.7693 124.554 54.672 123.094C54.5747 121.585 54.5503 119.931 54.599 118.13C54.6477 116.524 54.6477 114.723 54.599 112.728C54.5017 110.635 54.453 108.494 54.453 106.304C54.4043 104.163 54.3557 101.997 54.307 99.807C54.2583 99.4663 54.234 99.1013 54.234 98.712C54.088 98.6633 53.942 98.5903 53.796 98.493ZM59.49 125.503C59.8307 125.649 60.22 125.771 60.658 125.868C61.388 126.014 62.0937 126.087 62.775 126.087C63.6023 126.087 64.454 126.038 65.33 125.941C66.206 125.795 67.082 125.6 67.958 125.357C68.834 125.114 69.7343 124.773 70.659 124.335C71.6323 123.897 72.6057 123.435 73.579 122.948C74.5037 122.461 75.3797 121.902 76.207 121.269C77.0343 120.588 77.886 119.785 78.762 118.86C79.6867 117.887 80.4897 116.865 81.171 115.794C81.8037 114.772 82.3147 113.482 82.704 111.925C83.0933 110.368 83.2393 109.029 83.142 107.91C83.0447 106.742 82.8257 105.501 82.485 104.187C82.1443 102.824 81.682 101.535 81.098 100.318C80.514 99.1013 79.9787 98.1037 79.492 97.325C79.0053 96.595 78.324 95.6703 77.448 94.551C76.6693 93.6263 75.7447 92.872 74.674 92.288C73.506 91.6553 72.4597 91.266 71.535 91.12C70.6103 90.9253 69.2963 90.9497 67.593 91.193C65.9383 91.3877 64.527 91.777 63.359 92.361C62.1423 92.945 60.9743 93.7723 59.855 94.843C59.5143 95.1837 59.1737 95.5243 58.833 95.865C58.8817 97.033 58.9303 98.2983 58.979 99.661C59.0277 101.851 59.0763 104.041 59.125 106.231C59.125 108.421 59.1737 110.538 59.271 112.582C59.3197 114.675 59.3197 116.597 59.271 118.349C59.2223 119.955 59.2467 121.439 59.344 122.802C59.3927 124.019 59.4413 124.919 59.49 125.503ZM93.4818 86.229C93.4818 85.5477 93.7008 84.988 94.1388 84.55C94.5768 84.112 95.1121 83.893 95.7448 83.893C96.4261 83.893 96.9858 84.112 97.4238 84.55L97.7158 84.769C98.1538 85.207 98.3728 85.7667 98.3728 86.448C98.3728 87.0807 98.1294 87.6403 97.6428 88.127C97.2048 88.565 96.6694 88.784 96.0368 88.784C95.4041 88.784 94.8444 88.5407 94.3578 88.054L94.1388 87.835C93.7008 87.397 93.4818 86.8617 93.4818 86.229ZM95.6718 97.836C96.2071 97.398 96.7911 97.2277 97.4238 97.325C98.0564 97.3737 98.5674 97.6657 98.9568 98.201C99.3461 98.6877 99.5164 99.2473 99.4678 99.88L99.3948 100.537C99.3461 100.975 99.2001 101.997 98.9568 103.603C98.7621 105.063 98.6648 106.645 98.6648 108.348C98.6648 110.149 98.6891 111.852 98.7378 113.458C98.7864 115.113 98.8108 116.646 98.8108 118.057C98.8108 119.42 98.8108 120.758 98.8108 122.072C98.8108 123.386 98.8351 124.335 98.8838 124.919C98.8838 125.552 98.8838 126.233 98.8838 126.963C98.8838 127.596 98.8838 128.058 98.8838 128.35V128.861C98.8838 129.494 98.6648 130.053 98.2268 130.54C97.7888 130.978 97.2534 131.221 96.6208 131.27C95.9881 131.27 95.4284 131.051 94.9418 130.613C94.4551 130.175 94.2118 129.64 94.2118 129.007V128.496C94.2118 128.155 94.2118 127.62 94.2118 126.89C94.2118 126.209 94.2118 125.576 94.2118 124.992C94.1631 124.359 94.1388 123.386 94.1388 122.072C94.1388 120.758 94.1388 119.42 94.1388 118.057C94.1388 116.694 94.1144 115.21 94.0658 113.604C94.0171 111.949 93.9928 110.197 93.9928 108.348C93.9928 106.401 94.1144 104.576 94.3578 102.873C94.5524 101.364 94.6741 100.415 94.7228 100.026L94.7958 99.369C94.8931 98.7363 95.1851 98.2253 95.6718 97.836ZM130.65 112.29C130.602 114.334 130.553 116.329 130.504 118.276C130.407 119.444 130.334 120.588 130.285 121.707C130.042 125.454 129.507 128.812 128.679 131.781C127.803 134.993 126.708 137.329 125.394 138.789C123.788 140.541 122.255 141.368 120.795 141.271C119.968 141.222 119.116 141.076 118.24 140.833L117.145 140.541C116.561 140.395 116.099 140.03 115.758 139.446C115.418 138.862 115.32 138.254 115.466 137.621C115.661 137.037 116.05 136.575 116.634 136.234C117.218 135.942 117.802 135.869 118.386 136.015L119.481 136.38C119.968 136.477 120.43 136.55 120.868 136.599C121.16 136.404 121.501 136.088 121.89 135.65C122.718 134.725 123.472 133.022 124.153 130.54C124.689 128.593 125.102 126.452 125.394 124.116C125.346 124.165 125.297 124.213 125.248 124.262C123.204 126.257 120.406 126.817 116.853 125.941C113.398 125.114 110.843 122.778 109.188 118.933C107.68 115.575 106.852 111.706 106.706 107.326C106.658 105.817 106.609 104.479 106.56 103.311C106.025 103.068 105.636 102.678 105.392 102.143C105.149 101.608 105.1 101.072 105.246 100.537L105.83 98.712C105.83 98.6633 105.806 98.566 105.757 98.42C105.757 98.274 105.806 98.0793 105.903 97.836C106.001 97.5927 106.098 97.3493 106.195 97.106C106.341 96.8627 106.585 96.6437 106.925 96.449C107.315 96.2543 107.777 96.157 108.312 96.157C109.383 96.0597 110.137 96.2787 110.575 96.814C111.062 97.3007 111.257 97.8117 111.159 98.347L111.086 99.223C111.135 100.488 111.232 103.141 111.378 107.18C111.476 110.927 112.157 114.237 113.422 117.108C114.493 119.493 116.002 120.928 117.948 121.415C119.846 121.853 121.209 121.683 122.036 120.904C122.912 120.028 123.74 118.665 124.518 116.816C124.713 116.281 124.908 115.721 125.102 115.137C125.443 114.066 125.735 112.923 125.978 111.706C125.978 111.219 126.003 110.708 126.051 110.173C126.1 106.085 126.222 102.751 126.416 100.172C126.368 99.9773 126.319 99.7583 126.27 99.515C126.27 99.2717 126.27 98.8337 126.27 98.201C126.319 97.5683 126.416 97.0573 126.562 96.668C126.757 96.23 127.122 95.8893 127.657 95.646C128.193 95.354 128.85 95.3053 129.628 95.5C130.504 95.6947 131.088 96.011 131.38 96.449C131.721 96.887 131.843 97.2763 131.745 97.617L131.599 98.128C131.794 99.588 131.77 102.216 131.526 106.012C131.38 108.202 131.088 110.295 130.65 112.29ZM161.194 121.05C160.95 120.32 160.658 119.76 160.318 119.371C159.831 118.884 158.931 118.349 157.617 117.765C156.205 117.084 154.672 116.573 153.018 116.232C151.412 115.843 149.903 115.672 148.492 115.721C147.324 115.77 146.253 116.086 145.28 116.67C144.355 117.205 143.601 118.033 143.017 119.152C142.433 120.271 142.116 121.147 142.068 121.78C142.068 122.267 142.262 122.948 142.652 123.824C143.041 124.554 143.868 125.211 145.134 125.795C146.642 126.476 148.443 127.012 150.536 127.401C152.58 127.693 154.502 127.669 156.303 127.328C158.201 126.987 159.636 126.549 160.61 126.014L160.902 125.868C160.95 125.284 160.999 124.554 161.048 123.678C161.096 122.899 161.145 122.023 161.194 121.05ZM160.829 130.978C159.807 131.319 158.614 131.635 157.252 131.927C154.867 132.414 152.385 132.438 149.806 132C147.275 131.562 145.061 130.905 143.163 130.029C140.973 129.007 139.44 127.644 138.564 125.941C137.688 124.335 137.298 122.851 137.396 121.488C137.493 120.174 138.004 118.641 138.929 116.889C139.902 115.088 141.216 113.677 142.871 112.655C144.525 111.633 146.35 111.098 148.346 111.049C150.146 111 152.044 111.195 154.04 111.633C156.035 112.12 157.884 112.752 159.588 113.531C160.074 113.774 160.561 114.018 161.048 114.261C160.902 112.509 160.61 110.781 160.172 109.078C159.588 106.693 158.809 104.868 157.836 103.603C156.96 102.581 156.254 102.046 155.719 101.997C155.037 101.9 154.064 102.167 152.799 102.8C151.533 103.384 150.633 104.163 150.098 105.136C149.757 105.769 149.514 106.255 149.368 106.596V106.815C149.514 107.448 149.416 108.032 149.076 108.567C148.784 109.102 148.321 109.467 147.689 109.662C147.056 109.808 146.448 109.711 145.864 109.37C145.328 109.029 144.988 108.543 144.842 107.91L144.696 107.326C144.647 107.034 144.623 106.742 144.623 106.45C144.623 106.158 144.623 105.915 144.623 105.72C144.671 105.477 144.744 105.209 144.842 104.917C144.988 104.625 145.109 104.406 145.207 104.26C145.304 104.114 145.426 103.895 145.572 103.603C145.766 103.262 145.912 103.019 146.01 102.873C147.032 101.024 148.613 99.588 150.755 98.566C152.896 97.544 154.745 97.1303 156.303 97.325C158.103 97.5683 159.807 98.6877 161.413 100.683C162.873 102.484 163.968 104.917 164.698 107.983C165.428 110.854 165.817 113.75 165.866 116.67C165.866 118.033 165.866 119.298 165.866 120.466C166.158 121.926 166.231 123.678 166.085 125.722C165.939 127.961 165.695 129.469 165.355 130.248C165.355 130.345 165.33 130.491 165.282 130.686C165.282 130.832 165.184 131.075 164.99 131.416C164.844 131.757 164.649 132.024 164.406 132.219C164.162 132.414 163.797 132.487 163.311 132.438C162.824 132.389 162.264 132.17 161.632 131.781L160.829 130.978ZM172.85 98.274C173.288 97.7873 173.824 97.544 174.456 97.544C175.089 97.4953 175.649 97.69 176.135 98.128C176.622 98.566 176.89 99.1013 176.938 99.734V100.172C176.938 100.318 176.938 100.537 176.938 100.829C178.009 99.9043 179.055 99.15 180.077 98.566C181.683 97.5927 183.338 97.1303 185.041 97.179C186.599 97.2277 187.815 97.4467 188.691 97.836C189.567 98.274 190.443 99.0527 191.319 100.172C192.147 101.145 192.877 102.435 193.509 104.041C194.093 105.598 194.531 107.229 194.823 108.932C195.067 110.538 195.213 111.803 195.261 112.728C195.359 113.604 195.407 114.796 195.407 116.305C195.456 117.765 195.432 119.103 195.334 120.32C195.286 121.488 195.237 122.51 195.188 123.386C195.091 124.213 195.042 124.968 195.042 125.649C195.042 126.428 195.018 127.06 194.969 127.547C194.969 127.985 194.945 128.374 194.896 128.715V129.372C194.848 130.005 194.58 130.54 194.093 130.978C193.607 131.416 193.047 131.611 192.414 131.562C191.782 131.513 191.246 131.27 190.808 130.832C190.37 130.345 190.176 129.761 190.224 129.08V128.496C190.273 128.107 190.297 127.693 190.297 127.255C190.346 126.817 190.37 126.257 190.37 125.576C190.37 124.797 190.419 123.97 190.516 123.094C190.565 122.218 190.614 121.196 190.662 120.028C190.76 118.957 190.784 117.741 190.735 116.378C190.735 115.015 190.687 113.945 190.589 113.166C190.541 112.339 190.395 111.171 190.151 109.662C189.957 108.251 189.616 106.937 189.129 105.72C188.691 104.601 188.229 103.725 187.742 103.092C187.256 102.508 186.891 102.167 186.647 102.07C186.404 101.924 185.82 101.851 184.895 101.851C184.117 101.802 183.314 102.021 182.486 102.508C181.464 103.189 180.345 104.065 179.128 105.136C178.009 106.207 177.328 106.937 177.084 107.326C176.938 107.521 176.841 107.715 176.792 107.91C176.744 108.786 176.695 109.759 176.646 110.83C176.549 113.507 176.5 116.183 176.5 118.86C176.5 121.537 176.549 123.702 176.646 125.357C176.744 127.06 176.817 128.155 176.865 128.642V129.226C176.914 129.907 176.695 130.491 176.208 130.978C175.77 131.416 175.235 131.659 174.602 131.708C173.97 131.708 173.41 131.489 172.923 131.051C172.485 130.613 172.242 130.078 172.193 129.445V128.788C172.145 128.399 172.072 127.352 171.974 125.649C171.877 123.897 171.828 121.634 171.828 118.86C171.828 116.135 171.877 113.385 171.974 110.611C172.023 110.173 172.047 109.759 172.047 109.37C171.95 109.078 171.926 108.762 171.974 108.421L172.047 107.545C172.096 107.448 172.12 107.35 172.12 107.253C172.169 105.988 172.218 104.795 172.266 103.676C172.266 101.827 172.266 100.756 172.266 100.464V99.953C172.218 99.3203 172.412 98.7607 172.85 98.274Z" fill="#A96191"/>
<path d="M117.944 82.942C117.944 83.0687 117.944 83.1953 117.944 83.322C117.893 84.1073 117.881 84.9687 117.906 85.906C117.957 86.8433 118.02 87.8187 118.096 88.832C118.197 89.8707 118.299 90.884 118.4 91.872C118.476 92.8093 118.577 93.506 118.704 93.962L118.894 94.722C118.97 95.0513 118.919 95.3553 118.742 95.634C118.565 95.938 118.311 96.128 117.982 96.204C117.678 96.28 117.374 96.2293 117.07 96.052C116.791 95.8747 116.614 95.6213 116.538 95.292L116.348 94.532C116.196 93.9747 116.069 93.164 115.968 92.1C115.867 91.112 115.778 90.0987 115.702 89.06C115.601 87.996 115.525 86.97 115.474 85.982C115.474 85.3993 115.474 84.842 115.474 84.31C114.891 84.5127 114.271 84.652 113.612 84.728C112.447 84.8293 111.269 84.5 110.078 83.74C109.419 83.3093 108.951 82.7647 108.672 82.106C108.419 81.422 108.406 80.7 108.634 79.94C108.913 79.028 109.47 78.2427 110.306 77.584C109.293 77.1533 108.799 76.482 108.824 75.57C108.849 74.962 109.065 74.468 109.47 74.088C109.901 73.708 110.458 73.366 111.142 73.062C112.434 72.5047 113.802 72.3907 115.246 72.72C115.677 72.8213 116.044 72.9227 116.348 73.024C116.449 71.884 116.563 70.6933 116.69 69.452L116.88 67.628C116.931 67.2987 117.083 67.0327 117.336 66.83C117.615 66.602 117.919 66.5133 118.248 66.564C118.577 66.5893 118.843 66.7413 119.046 67.02C119.249 67.2733 119.337 67.5647 119.312 67.894L119.122 69.718C118.97 70.9593 118.856 72.1247 118.78 73.214C118.729 74.05 118.615 74.6453 118.438 75C118.286 75.2787 118.033 75.494 117.678 75.646C117.323 75.798 116.905 75.7727 116.424 75.57C116.196 75.4687 115.626 75.3167 114.714 75.114C113.802 74.886 112.928 74.9493 112.092 75.304C111.965 75.3547 111.851 75.4053 111.75 75.456C111.801 75.4813 111.839 75.494 111.864 75.494C112.801 75.6713 113.523 75.722 114.03 75.646C114.157 75.646 114.258 75.6207 114.334 75.57C114.41 75.5193 114.486 75.494 114.562 75.494C114.638 75.494 114.815 75.532 115.094 75.608C115.322 75.684 115.461 75.8233 115.512 76.026C115.588 76.2033 115.588 76.406 115.512 76.634C115.436 76.8367 115.335 77.052 115.208 77.28C115.107 77.4827 115.005 77.66 114.904 77.812L114.714 78.04C114.435 78.0907 113.739 78.4073 112.624 78.99C111.712 79.446 111.155 80.0033 110.952 80.662C110.876 80.89 110.863 81.08 110.914 81.232C110.965 81.3587 111.129 81.5107 111.408 81.688C112.117 82.144 112.789 82.3467 113.422 82.296C114.131 82.22 114.815 82.0173 115.474 81.688C115.601 81.612 115.727 81.536 115.854 81.46C115.981 81.2067 116.145 81.004 116.348 80.852C116.449 80.8267 116.703 80.8013 117.108 80.776C117.513 80.7507 117.881 80.8647 118.21 81.118C118.539 81.3713 118.615 81.7387 118.438 82.22C118.362 82.4733 118.197 82.714 117.944 82.942Z" fill="#A96191"/>
</svg>
