<svg width="249" height="216" viewBox="0 0 249 216" fill="none" xmlns="http://www.w3.org/2000/svg">
<path d="M51.1079 8.39648H54.2954V8.70361C54.0021 8.72575 53.8084 8.77832 53.7144 8.86133C53.6258 8.94434 53.5815 9.06331 53.5815 9.21826C53.5815 9.38981 53.6286 9.59733 53.7227 9.84082L55.3496 14.2153L56.9849 10.6543L56.5532 9.53369C56.4204 9.20166 56.2461 8.97201 56.0303 8.84473C55.9085 8.76725 55.6816 8.72021 55.3496 8.70361V8.39648H58.9688V8.70361C58.5703 8.72021 58.2881 8.79215 58.1221 8.91943C58.0114 9.00798 57.9561 9.14909 57.9561 9.34277C57.9561 9.45345 57.9782 9.56689 58.0225 9.68311L59.749 14.0493L61.3511 9.84082C61.4618 9.54199 61.5171 9.30404 61.5171 9.12695C61.5171 9.02181 61.4618 8.92773 61.3511 8.84473C61.2459 8.76172 61.0356 8.71468 60.7202 8.70361V8.39648H63.1191V8.70361C62.6377 8.77555 62.2835 9.10205 62.0566 9.68311L59.5166 16.2324H59.1763L57.2754 11.3765L55.0591 16.2324H54.752L52.3115 9.84082C52.151 9.43685 51.9933 9.16569 51.8384 9.02734C51.6834 8.88346 51.4399 8.77555 51.1079 8.70361V8.39648ZM65.0947 11.2603C65.0892 12.3892 65.3631 13.2746 65.9165 13.9165C66.4699 14.5584 67.1201 14.8794 67.8672 14.8794C68.3652 14.8794 68.7969 14.7438 69.1621 14.4727C69.5329 14.196 69.8428 13.7256 70.0918 13.0615L70.3491 13.2275C70.2329 13.9857 69.8953 14.6774 69.3364 15.3027C68.7775 15.9225 68.0775 16.2324 67.2363 16.2324C66.3232 16.2324 65.5402 15.8783 64.8872 15.1699C64.2397 14.4561 63.916 13.4987 63.916 12.2979C63.916 10.9974 64.248 9.9847 64.9121 9.25977C65.5817 8.5293 66.4201 8.16406 67.4272 8.16406C68.2795 8.16406 68.9795 8.44629 69.5273 9.01074C70.0752 9.56966 70.3491 10.3195 70.3491 11.2603H65.0947ZM65.0947 10.7788H68.6143C68.5866 10.2918 68.5285 9.94873 68.4399 9.74951C68.3016 9.43962 68.0941 9.19613 67.8174 9.01904C67.5462 8.84196 67.2612 8.75342 66.9624 8.75342C66.5031 8.75342 66.0908 8.93327 65.7256 9.29297C65.3659 9.64714 65.1556 10.1424 65.0947 10.7788ZM76.7407 15.145C76.37 15.5324 76.0075 15.8118 75.6533 15.9834C75.2992 16.1494 74.9173 16.2324 74.5078 16.2324C73.6777 16.2324 72.9528 15.8866 72.333 15.1948C71.7132 14.4976 71.4033 13.6038 71.4033 12.5137C71.4033 11.4235 71.7464 10.4274 72.4326 9.52539C73.1188 8.61784 74.0015 8.16406 75.0806 8.16406C75.7502 8.16406 76.3035 8.37712 76.7407 8.80322V7.40039C76.7407 6.53158 76.7186 5.99756 76.6743 5.79834C76.6356 5.59912 76.5719 5.46354 76.4834 5.3916C76.3949 5.31966 76.2842 5.28369 76.1514 5.28369C76.0075 5.28369 75.8166 5.32796 75.5786 5.4165L75.4707 5.12598L77.7368 4.19629H78.1104V12.9868C78.1104 13.8778 78.1297 14.4229 78.1685 14.6221C78.2127 14.8158 78.2791 14.9513 78.3677 15.0288C78.4618 15.1063 78.5697 15.145 78.6914 15.145C78.8408 15.145 79.04 15.098 79.2891 15.0039L79.3804 15.2944L77.1226 16.2324H76.7407V15.145ZM76.7407 14.564V10.646C76.7075 10.2697 76.6079 9.9266 76.4419 9.6167C76.2759 9.3068 76.0545 9.07438 75.7778 8.91943C75.5067 8.75895 75.241 8.67871 74.981 8.67871C74.494 8.67871 74.0596 8.8973 73.6777 9.33447C73.1742 9.90999 72.9224 10.7511 72.9224 11.8579C72.9224 12.9757 73.1659 13.8335 73.6528 14.4312C74.1398 15.0233 74.6821 15.3193 75.2798 15.3193C75.7834 15.3193 76.2703 15.0675 76.7407 14.564ZM85.2407 15.145C84.87 15.5324 84.5075 15.8118 84.1533 15.9834C83.7992 16.1494 83.4173 16.2324 83.0078 16.2324C82.1777 16.2324 81.4528 15.8866 80.833 15.1948C80.2132 14.4976 79.9033 13.6038 79.9033 12.5137C79.9033 11.4235 80.2464 10.4274 80.9326 9.52539C81.6188 8.61784 82.5015 8.16406 83.5806 8.16406C84.2502 8.16406 84.8035 8.37712 85.2407 8.80322V7.40039C85.2407 6.53158 85.2186 5.99756 85.1743 5.79834C85.1356 5.59912 85.0719 5.46354 84.9834 5.3916C84.8949 5.31966 84.7842 5.28369 84.6514 5.28369C84.5075 5.28369 84.3166 5.32796 84.0786 5.4165L83.9707 5.12598L86.2368 4.19629H86.6104V12.9868C86.6104 13.8778 86.6297 14.4229 86.6685 14.6221C86.7127 14.8158 86.7791 14.9513 86.8677 15.0288C86.9618 15.1063 87.0697 15.145 87.1914 15.145C87.3408 15.145 87.54 15.098 87.7891 15.0039L87.8804 15.2944L85.6226 16.2324H85.2407V15.145ZM85.2407 14.564V10.646C85.2075 10.2697 85.1079 9.9266 84.9419 9.6167C84.7759 9.3068 84.5545 9.07438 84.2778 8.91943C84.0067 8.75895 83.741 8.67871 83.481 8.67871C82.994 8.67871 82.5596 8.8973 82.1777 9.33447C81.6742 9.90999 81.4224 10.7511 81.4224 11.8579C81.4224 12.9757 81.6659 13.8335 82.1528 14.4312C82.6398 15.0233 83.1821 15.3193 83.7798 15.3193C84.2834 15.3193 84.7703 15.0675 85.2407 14.564ZM90.3042 4.19629C90.5366 4.19629 90.7331 4.2793 90.8936 4.44531C91.0596 4.60579 91.1426 4.80225 91.1426 5.03467C91.1426 5.26709 91.0596 5.46631 90.8936 5.63232C90.7331 5.79834 90.5366 5.88135 90.3042 5.88135C90.0718 5.88135 89.8726 5.79834 89.7065 5.63232C89.5405 5.46631 89.4575 5.26709 89.4575 5.03467C89.4575 4.80225 89.5378 4.60579 89.6982 4.44531C89.8643 4.2793 90.0662 4.19629 90.3042 4.19629ZM90.9932 8.17236V14.2817C90.9932 14.7576 91.0264 15.0758 91.0928 15.2363C91.1647 15.3913 91.2671 15.5075 91.3999 15.585C91.5382 15.6624 91.7873 15.7012 92.147 15.7012V16H88.4531V15.7012C88.8239 15.7012 89.0729 15.6652 89.2002 15.5933C89.3275 15.5213 89.4271 15.4023 89.499 15.2363C89.5765 15.0703 89.6152 14.7521 89.6152 14.2817V11.3516C89.6152 10.527 89.5903 9.993 89.5405 9.74951C89.5018 9.57243 89.4409 9.45068 89.3579 9.38428C89.2749 9.31234 89.1615 9.27637 89.0176 9.27637C88.8626 9.27637 88.6745 9.31787 88.4531 9.40088L88.3369 9.10205L90.6279 8.17236H90.9932ZM95.3179 9.78271C96.2088 8.70915 97.0583 8.17236 97.8662 8.17236C98.2812 8.17236 98.6382 8.27751 98.937 8.48779C99.2358 8.69255 99.4738 9.03288 99.6509 9.50879C99.7726 9.84082 99.8335 10.3499 99.8335 11.0361V14.2817C99.8335 14.7632 99.8722 15.0897 99.9497 15.2612C100.011 15.3996 100.107 15.5075 100.24 15.585C100.379 15.6624 100.63 15.7012 100.996 15.7012V16H97.2354V15.7012H97.3931C97.7472 15.7012 97.9935 15.6486 98.1318 15.5435C98.2757 15.4328 98.3753 15.2723 98.4307 15.062C98.4528 14.979 98.4639 14.7189 98.4639 14.2817V11.1689C98.4639 10.4772 98.3726 9.9764 98.1899 9.6665C98.0129 9.35107 97.7113 9.19336 97.2852 9.19336C96.6266 9.19336 95.9709 9.55306 95.3179 10.2725V14.2817C95.3179 14.7964 95.3483 15.1146 95.4092 15.2363C95.4867 15.3968 95.5918 15.5158 95.7246 15.5933C95.863 15.6652 96.1396 15.7012 96.5547 15.7012V16H92.7944V15.7012H92.9604C93.3478 15.7012 93.6079 15.6043 93.7407 15.4106C93.8791 15.2114 93.9482 14.8351 93.9482 14.2817V11.4595C93.9482 10.5464 93.9261 9.99023 93.8818 9.79102C93.8431 9.5918 93.7795 9.45622 93.6909 9.38428C93.6079 9.31234 93.4945 9.27637 93.3506 9.27637C93.1956 9.27637 93.0103 9.31787 92.7944 9.40088L92.6699 9.10205L94.9609 8.17236H95.3179V9.78271ZM103.635 13.2275C103.17 13.0007 102.813 12.6852 102.564 12.2812C102.315 11.8717 102.191 11.4207 102.191 10.9282C102.191 10.1756 102.473 9.52816 103.038 8.98584C103.608 8.44352 104.335 8.17236 105.221 8.17236C105.946 8.17236 106.574 8.34945 107.105 8.70361H108.715C108.953 8.70361 109.092 8.71191 109.13 8.72852C109.169 8.73958 109.197 8.76172 109.213 8.79492C109.247 8.84473 109.263 8.93327 109.263 9.06055C109.263 9.20443 109.249 9.30404 109.222 9.35938C109.205 9.38704 109.175 9.40918 109.13 9.42578C109.092 9.44238 108.953 9.45068 108.715 9.45068H107.728C108.037 9.84912 108.192 10.3582 108.192 10.978C108.192 11.6864 107.921 12.2923 107.379 12.7959C106.837 13.2995 106.109 13.5513 105.196 13.5513C104.819 13.5513 104.435 13.4959 104.042 13.3853C103.799 13.5955 103.632 13.7809 103.544 13.9414C103.461 14.0964 103.419 14.2292 103.419 14.3398C103.419 14.4339 103.464 14.5252 103.552 14.6138C103.646 14.7023 103.826 14.766 104.092 14.8047C104.247 14.8268 104.634 14.8462 105.254 14.8628C106.394 14.8905 107.133 14.9292 107.47 14.979C107.985 15.0509 108.394 15.2419 108.699 15.5518C109.009 15.8617 109.164 16.2435 109.164 16.6973C109.164 17.3226 108.87 17.9092 108.284 18.457C107.42 19.265 106.294 19.6689 104.905 19.6689C103.837 19.6689 102.935 19.4282 102.199 18.9468C101.784 18.6701 101.577 18.3823 101.577 18.0835C101.577 17.9507 101.607 17.8179 101.668 17.6851C101.762 17.4803 101.956 17.1953 102.249 16.8301C102.288 16.7803 102.57 16.4814 103.096 15.9336C102.808 15.762 102.603 15.6099 102.481 15.4771C102.365 15.3387 102.307 15.1838 102.307 15.0122C102.307 14.8185 102.385 14.5916 102.54 14.3315C102.7 14.0715 103.065 13.7035 103.635 13.2275ZM105.08 8.5708C104.67 8.5708 104.327 8.73405 104.05 9.06055C103.774 9.38704 103.635 9.88786 103.635 10.563C103.635 11.4373 103.823 12.1152 104.2 12.5967C104.487 12.9619 104.853 13.1445 105.295 13.1445C105.716 13.1445 106.062 12.9868 106.333 12.6714C106.604 12.356 106.74 11.8607 106.74 11.1855C106.74 10.3057 106.549 9.6167 106.167 9.11865C105.885 8.75342 105.522 8.5708 105.08 8.5708ZM103.552 16C103.292 16.2822 103.096 16.5451 102.963 16.7886C102.83 17.0321 102.764 17.2562 102.764 17.4609C102.764 17.7266 102.924 17.959 103.245 18.1582C103.799 18.5013 104.598 18.6729 105.644 18.6729C106.64 18.6729 107.373 18.4958 107.844 18.1416C108.32 17.793 108.558 17.4194 108.558 17.021C108.558 16.7332 108.417 16.5285 108.134 16.4067C107.847 16.285 107.277 16.2131 106.424 16.1909C105.179 16.1577 104.222 16.0941 103.552 16ZM116.286 4.19629C116.518 4.19629 116.715 4.2793 116.875 4.44531C117.041 4.60579 117.124 4.80225 117.124 5.03467C117.124 5.26709 117.041 5.46631 116.875 5.63232C116.715 5.79834 116.518 5.88135 116.286 5.88135C116.053 5.88135 115.854 5.79834 115.688 5.63232C115.522 5.46631 115.439 5.26709 115.439 5.03467C115.439 4.80225 115.519 4.60579 115.68 4.44531C115.846 4.2793 116.048 4.19629 116.286 4.19629ZM116.975 8.17236V14.2817C116.975 14.7576 117.008 15.0758 117.074 15.2363C117.146 15.3913 117.249 15.5075 117.381 15.585C117.52 15.6624 117.769 15.7012 118.128 15.7012V16H114.435V15.7012C114.805 15.7012 115.054 15.6652 115.182 15.5933C115.309 15.5213 115.409 15.4023 115.48 15.2363C115.558 15.0703 115.597 14.7521 115.597 14.2817V11.3516C115.597 10.527 115.572 9.993 115.522 9.74951C115.483 9.57243 115.422 9.45068 115.339 9.38428C115.256 9.31234 115.143 9.27637 114.999 9.27637C114.844 9.27637 114.656 9.31787 114.435 9.40088L114.318 9.10205L116.609 8.17236H116.975ZM121.299 9.78271C122.19 8.70915 123.04 8.17236 123.848 8.17236C124.263 8.17236 124.62 8.27751 124.918 8.48779C125.217 8.69255 125.455 9.03288 125.632 9.50879C125.754 9.84082 125.815 10.3499 125.815 11.0361V14.2817C125.815 14.7632 125.854 15.0897 125.931 15.2612C125.992 15.3996 126.089 15.5075 126.222 15.585C126.36 15.6624 126.612 15.7012 126.977 15.7012V16H123.217V15.7012H123.375C123.729 15.7012 123.975 15.6486 124.113 15.5435C124.257 15.4328 124.357 15.2723 124.412 15.062C124.434 14.979 124.445 14.7189 124.445 14.2817V11.1689C124.445 10.4772 124.354 9.9764 124.171 9.6665C123.994 9.35107 123.693 9.19336 123.267 9.19336C122.608 9.19336 121.952 9.55306 121.299 10.2725V14.2817C121.299 14.7964 121.33 15.1146 121.391 15.2363C121.468 15.3968 121.573 15.5158 121.706 15.5933C121.844 15.6652 122.121 15.7012 122.536 15.7012V16H118.776V15.7012H118.942C119.329 15.7012 119.589 15.6043 119.722 15.4106C119.861 15.2114 119.93 14.8351 119.93 14.2817V11.4595C119.93 10.5464 119.908 9.99023 119.863 9.79102C119.825 9.5918 119.761 9.45622 119.672 9.38428C119.589 9.31234 119.476 9.27637 119.332 9.27637C119.177 9.27637 118.992 9.31787 118.776 9.40088L118.651 9.10205L120.942 8.17236H121.299V9.78271ZM127.193 8.39648H130.771V8.70361H130.538C130.322 8.70361 130.156 8.75618 130.04 8.86133C129.929 8.96647 129.874 9.10758 129.874 9.28467C129.874 9.47835 129.932 9.70801 130.048 9.97363L131.816 14.1738L133.593 9.81592C133.72 9.50602 133.784 9.27083 133.784 9.11035C133.784 9.03288 133.762 8.96924 133.717 8.91943C133.656 8.83643 133.579 8.78109 133.485 8.75342C133.391 8.72021 133.2 8.70361 132.912 8.70361V8.39648H135.394V8.70361C135.106 8.72575 134.907 8.78385 134.796 8.87793C134.603 9.04395 134.428 9.32064 134.273 9.70801L131.576 16.2324H131.235L128.521 9.81592C128.399 9.51709 128.283 9.30404 128.172 9.17676C128.062 9.04395 127.921 8.93327 127.749 8.84473C127.655 8.79492 127.47 8.74788 127.193 8.70361V8.39648ZM138.017 4.19629C138.25 4.19629 138.446 4.2793 138.606 4.44531C138.772 4.60579 138.855 4.80225 138.855 5.03467C138.855 5.26709 138.772 5.46631 138.606 5.63232C138.446 5.79834 138.25 5.88135 138.017 5.88135C137.785 5.88135 137.585 5.79834 137.419 5.63232C137.253 5.46631 137.17 5.26709 137.17 5.03467C137.17 4.80225 137.251 4.60579 137.411 4.44531C137.577 4.2793 137.779 4.19629 138.017 4.19629ZM138.706 8.17236V14.2817C138.706 14.7576 138.739 15.0758 138.806 15.2363C138.878 15.3913 138.98 15.5075 139.113 15.585C139.251 15.6624 139.5 15.7012 139.86 15.7012V16H136.166V15.7012C136.537 15.7012 136.786 15.6652 136.913 15.5933C137.04 15.5213 137.14 15.4023 137.212 15.2363C137.289 15.0703 137.328 14.7521 137.328 14.2817V11.3516C137.328 10.527 137.303 9.993 137.253 9.74951C137.215 9.57243 137.154 9.45068 137.071 9.38428C136.988 9.31234 136.874 9.27637 136.73 9.27637C136.576 9.27637 136.387 9.31787 136.166 9.40088L136.05 9.10205L138.341 8.17236H138.706ZM143.022 5.89795V8.39648H144.799V8.97754H143.022V13.9082C143.022 14.4007 143.092 14.7327 143.23 14.9043C143.374 15.0758 143.556 15.1616 143.778 15.1616C143.96 15.1616 144.138 15.1063 144.309 14.9956C144.481 14.8794 144.613 14.7106 144.708 14.4893H145.031C144.838 15.0316 144.564 15.4411 144.209 15.7178C143.855 15.9889 143.49 16.1245 143.114 16.1245C142.859 16.1245 142.61 16.0553 142.367 15.917C142.123 15.7731 141.943 15.5711 141.827 15.311C141.711 15.0454 141.653 14.6387 141.653 14.0908V8.97754H140.449V8.70361C140.754 8.58187 141.063 8.37712 141.379 8.08936C141.7 7.79606 141.985 7.4502 142.234 7.05176C142.361 6.84147 142.538 6.45687 142.765 5.89795H143.022ZM149.854 14.9043C149.074 15.5075 148.584 15.8561 148.385 15.9502C148.086 16.0885 147.768 16.1577 147.43 16.1577C146.904 16.1577 146.47 15.9779 146.127 15.6182C145.789 15.2585 145.621 14.7853 145.621 14.1987C145.621 13.828 145.704 13.507 145.87 13.2358C146.097 12.8595 146.489 12.5054 147.048 12.1733C147.613 11.8413 148.548 11.4373 149.854 10.9614V10.6626C149.854 9.90446 149.732 9.38428 149.489 9.10205C149.251 8.81982 148.902 8.67871 148.443 8.67871C148.094 8.67871 147.818 8.77279 147.613 8.96094C147.403 9.14909 147.297 9.36491 147.297 9.6084L147.314 10.0898C147.314 10.3444 147.248 10.5409 147.115 10.6792C146.987 10.8175 146.819 10.8867 146.608 10.8867C146.404 10.8867 146.235 10.8148 146.102 10.6709C145.975 10.527 145.911 10.3306 145.911 10.0815C145.911 9.60563 146.155 9.16846 146.642 8.77002C147.129 8.37158 147.812 8.17236 148.692 8.17236C149.367 8.17236 149.92 8.28581 150.352 8.5127C150.679 8.68424 150.919 8.95264 151.074 9.31787C151.174 9.55583 151.224 10.0428 151.224 10.7788V13.3604C151.224 14.0853 151.237 14.5308 151.265 14.6968C151.293 14.8573 151.337 14.9652 151.398 15.0205C151.464 15.0758 151.539 15.1035 151.622 15.1035C151.711 15.1035 151.788 15.0841 151.854 15.0454C151.971 14.9735 152.195 14.7715 152.527 14.4395V14.9043C151.907 15.7344 151.315 16.1494 150.75 16.1494C150.479 16.1494 150.264 16.0553 150.103 15.8672C149.943 15.679 149.86 15.3581 149.854 14.9043ZM149.854 14.3647V11.4678C149.018 11.7998 148.479 12.035 148.235 12.1733C147.798 12.4168 147.486 12.6714 147.297 12.937C147.109 13.2026 147.015 13.4932 147.015 13.8086C147.015 14.207 147.134 14.5391 147.372 14.8047C147.61 15.0648 147.884 15.1948 148.194 15.1948C148.614 15.1948 149.168 14.9181 149.854 14.3647ZM155.308 5.89795V8.39648H157.084V8.97754H155.308V13.9082C155.308 14.4007 155.377 14.7327 155.515 14.9043C155.659 15.0758 155.842 15.1616 156.063 15.1616C156.246 15.1616 156.423 15.1063 156.594 14.9956C156.766 14.8794 156.899 14.7106 156.993 14.4893H157.316C157.123 15.0316 156.849 15.4411 156.495 15.7178C156.14 15.9889 155.775 16.1245 155.399 16.1245C155.144 16.1245 154.895 16.0553 154.652 15.917C154.408 15.7731 154.229 15.5711 154.112 15.311C153.996 15.0454 153.938 14.6387 153.938 14.0908V8.97754H152.734V8.70361C153.039 8.58187 153.349 8.37712 153.664 8.08936C153.985 7.79606 154.27 7.4502 154.519 7.05176C154.646 6.84147 154.823 6.45687 155.05 5.89795H155.308ZM159.765 4.19629C159.998 4.19629 160.194 4.2793 160.354 4.44531C160.521 4.60579 160.604 4.80225 160.604 5.03467C160.604 5.26709 160.521 5.46631 160.354 5.63232C160.194 5.79834 159.998 5.88135 159.765 5.88135C159.533 5.88135 159.333 5.79834 159.167 5.63232C159.001 5.46631 158.918 5.26709 158.918 5.03467C158.918 4.80225 158.999 4.60579 159.159 4.44531C159.325 4.2793 159.527 4.19629 159.765 4.19629ZM160.454 8.17236V14.2817C160.454 14.7576 160.487 15.0758 160.554 15.2363C160.626 15.3913 160.728 15.5075 160.861 15.585C160.999 15.6624 161.248 15.7012 161.608 15.7012V16H157.914V15.7012C158.285 15.7012 158.534 15.6652 158.661 15.5933C158.788 15.5213 158.888 15.4023 158.96 15.2363C159.037 15.0703 159.076 14.7521 159.076 14.2817V11.3516C159.076 10.527 159.051 9.993 159.001 9.74951C158.963 9.57243 158.902 9.45068 158.819 9.38428C158.736 9.31234 158.622 9.27637 158.479 9.27637C158.324 9.27637 158.135 9.31787 157.914 9.40088L157.798 9.10205L160.089 8.17236H160.454ZM166.281 8.17236C167.432 8.17236 168.356 8.60954 169.054 9.48389C169.646 10.231 169.942 11.0887 169.942 12.0571C169.942 12.7378 169.779 13.4268 169.452 14.124C169.126 14.8213 168.675 15.347 168.099 15.7012C167.529 16.0553 166.893 16.2324 166.19 16.2324C165.044 16.2324 164.134 15.7759 163.459 14.8628C162.889 14.0936 162.604 13.2303 162.604 12.2729C162.604 11.5757 162.776 10.884 163.119 10.1978C163.467 9.50602 163.924 8.99691 164.488 8.67041C165.053 8.33838 165.65 8.17236 166.281 8.17236ZM166.024 8.71191C165.731 8.71191 165.435 8.80046 165.136 8.97754C164.842 9.14909 164.604 9.45345 164.422 9.89062C164.239 10.3278 164.148 10.8895 164.148 11.5757C164.148 12.6825 164.367 13.637 164.804 14.4395C165.246 15.2419 165.827 15.6431 166.547 15.6431C167.084 15.6431 167.526 15.4217 167.875 14.979C168.224 14.5363 168.398 13.7754 168.398 12.6963C168.398 11.346 168.107 10.2835 167.526 9.50879C167.133 8.97754 166.633 8.71191 166.024 8.71191ZM173.279 9.78271C174.17 8.70915 175.019 8.17236 175.827 8.17236C176.242 8.17236 176.599 8.27751 176.898 8.48779C177.197 8.69255 177.435 9.03288 177.612 9.50879C177.734 9.84082 177.794 10.3499 177.794 11.0361V14.2817C177.794 14.7632 177.833 15.0897 177.911 15.2612C177.972 15.3996 178.068 15.5075 178.201 15.585C178.34 15.6624 178.591 15.7012 178.957 15.7012V16H175.196V15.7012H175.354C175.708 15.7012 175.954 15.6486 176.093 15.5435C176.237 15.4328 176.336 15.2723 176.392 15.062C176.414 14.979 176.425 14.7189 176.425 14.2817V11.1689C176.425 10.4772 176.333 9.9764 176.151 9.6665C175.974 9.35107 175.672 9.19336 175.246 9.19336C174.588 9.19336 173.932 9.55306 173.279 10.2725V14.2817C173.279 14.7964 173.309 15.1146 173.37 15.2363C173.448 15.3968 173.553 15.5158 173.686 15.5933C173.824 15.6652 174.101 15.7012 174.516 15.7012V16H170.755V15.7012H170.921C171.309 15.7012 171.569 15.6043 171.702 15.4106C171.84 15.2114 171.909 14.8351 171.909 14.2817V11.4595C171.909 10.5464 171.887 9.99023 171.843 9.79102C171.804 9.5918 171.74 9.45622 171.652 9.38428C171.569 9.31234 171.455 9.27637 171.312 9.27637C171.157 9.27637 170.971 9.31787 170.755 9.40088L170.631 9.10205L172.922 8.17236H173.279V9.78271ZM187.531 8.17236C188.682 8.17236 189.606 8.60954 190.304 9.48389C190.896 10.231 191.192 11.0887 191.192 12.0571C191.192 12.7378 191.029 13.4268 190.702 14.124C190.376 14.8213 189.925 15.347 189.349 15.7012C188.779 16.0553 188.143 16.2324 187.44 16.2324C186.294 16.2324 185.384 15.7759 184.709 14.8628C184.139 14.0936 183.854 13.2303 183.854 12.2729C183.854 11.5757 184.026 10.884 184.369 10.1978C184.717 9.50602 185.174 8.99691 185.738 8.67041C186.303 8.33838 186.9 8.17236 187.531 8.17236ZM187.274 8.71191C186.981 8.71191 186.685 8.80046 186.386 8.97754C186.092 9.14909 185.854 9.45345 185.672 9.89062C185.489 10.3278 185.398 10.8895 185.398 11.5757C185.398 12.6825 185.617 13.637 186.054 14.4395C186.496 15.2419 187.077 15.6431 187.797 15.6431C188.334 15.6431 188.776 15.4217 189.125 14.979C189.474 14.5363 189.648 13.7754 189.648 12.6963C189.648 11.346 189.357 10.2835 188.776 9.50879C188.383 8.97754 187.883 8.71191 187.274 8.71191ZM195.284 8.99414V13.9912C195.284 14.6995 195.362 15.1478 195.517 15.3359C195.721 15.5794 195.995 15.7012 196.338 15.7012H197.027V16H192.487V15.7012H192.827C193.049 15.7012 193.25 15.6458 193.433 15.5352C193.616 15.4245 193.74 15.2751 193.807 15.0869C193.879 14.8988 193.915 14.5335 193.915 13.9912V8.99414H192.437V8.39648H193.915V7.89844C193.915 7.1403 194.036 6.49837 194.28 5.97266C194.523 5.44694 194.894 5.0236 195.392 4.70264C195.896 4.37614 196.46 4.21289 197.085 4.21289C197.667 4.21289 198.201 4.40104 198.688 4.77734C199.008 5.02637 199.169 5.30583 199.169 5.61572C199.169 5.78174 199.097 5.93945 198.953 6.08887C198.809 6.23275 198.654 6.30469 198.488 6.30469C198.361 6.30469 198.225 6.26042 198.082 6.17188C197.943 6.0778 197.772 5.88135 197.567 5.58252C197.362 5.27816 197.174 5.0734 197.002 4.96826C196.831 4.86312 196.64 4.81055 196.43 4.81055C196.175 4.81055 195.959 4.87972 195.782 5.01807C195.605 5.15088 195.478 5.36117 195.4 5.64893C195.323 5.93115 195.284 6.66439 195.284 7.84863V8.39648H197.243V8.99414H195.284Z" fill="#A96191"/>
<path d="M65.9922 201.848L68.7314 200.512H69.0054V210.016C69.0054 210.647 69.0303 211.04 69.0801 211.195C69.1354 211.35 69.2461 211.469 69.4121 211.552C69.5781 211.635 69.9157 211.682 70.4248 211.693V212H66.1914V211.693C66.7227 211.682 67.0658 211.638 67.2207 211.56C67.3757 211.477 67.4836 211.369 67.5444 211.236C67.6053 211.098 67.6357 210.691 67.6357 210.016V203.94C67.6357 203.121 67.6081 202.595 67.5527 202.363C67.514 202.186 67.4421 202.056 67.3369 201.973C67.2373 201.89 67.1156 201.848 66.9717 201.848C66.7669 201.848 66.4819 201.934 66.1167 202.105L65.9922 201.848ZM74.21 200.744H80.2446V201.06L76.4927 212.232H75.563L78.9248 202.097H75.8286C75.2033 202.097 74.7578 202.172 74.4922 202.321C74.0273 202.576 73.6538 202.969 73.3716 203.5L73.1309 203.409L74.21 200.744ZM91.4673 200.487C92.9282 200.487 94.1927 201.043 95.2607 202.155C96.3343 203.262 96.8711 204.646 96.8711 206.306C96.8711 208.016 96.3315 209.435 95.2524 210.564C94.1733 211.693 92.8674 212.257 91.3345 212.257C89.785 212.257 88.4818 211.707 87.4248 210.605C86.3734 209.504 85.8477 208.079 85.8477 206.331C85.8477 204.543 86.4564 203.085 87.6738 201.956C88.7308 200.977 89.9953 200.487 91.4673 200.487ZM91.3096 201.093C90.3024 201.093 89.4945 201.466 88.8857 202.213C88.1276 203.143 87.7485 204.504 87.7485 206.297C87.7485 208.135 88.1414 209.549 88.9272 210.539C89.5304 211.292 90.3273 211.668 91.3179 211.668C92.3748 211.668 93.2464 211.256 93.9326 210.431C94.6243 209.607 94.9702 208.306 94.9702 206.53C94.9702 204.604 94.5911 203.168 93.833 202.222C93.2243 201.469 92.3831 201.093 91.3096 201.093ZM100.316 200.196V207.758L102.25 205.999C102.66 205.622 102.897 205.384 102.964 205.285C103.008 205.218 103.03 205.152 103.03 205.085C103.03 204.975 102.983 204.881 102.889 204.803C102.801 204.72 102.651 204.673 102.441 204.662V204.396H105.745V204.662C105.291 204.673 104.912 204.742 104.607 204.87C104.309 204.997 103.979 205.224 103.62 205.55L101.669 207.352L103.62 209.817C104.162 210.498 104.527 210.929 104.715 211.112C104.981 211.372 105.213 211.541 105.413 211.618C105.551 211.674 105.792 211.701 106.135 211.701V212H102.441V211.701C102.651 211.696 102.792 211.665 102.864 211.61C102.942 211.549 102.98 211.466 102.98 211.361C102.98 211.234 102.87 211.029 102.648 210.747L100.316 207.767V210.29C100.316 210.783 100.349 211.106 100.416 211.261C100.487 211.416 100.587 211.527 100.714 211.593C100.842 211.66 101.118 211.696 101.544 211.701V212H97.6763V211.701C98.0636 211.701 98.3542 211.654 98.5479 211.56C98.6641 211.499 98.7526 211.405 98.8135 211.278C98.8965 211.095 98.938 210.78 98.938 210.332V203.409C98.938 202.529 98.9186 201.992 98.8799 201.798C98.8411 201.599 98.7775 201.464 98.689 201.392C98.6004 201.314 98.4842 201.275 98.3403 201.275C98.2241 201.275 98.0498 201.322 97.8174 201.417L97.6763 201.126L99.9341 200.196H100.316ZM108.774 201.898V204.396H110.551V204.978H108.774V209.908C108.774 210.401 108.844 210.733 108.982 210.904C109.126 211.076 109.308 211.162 109.53 211.162C109.712 211.162 109.889 211.106 110.061 210.996C110.233 210.879 110.365 210.711 110.459 210.489H110.783C110.59 211.032 110.316 211.441 109.961 211.718C109.607 211.989 109.242 212.125 108.866 212.125C108.611 212.125 108.362 212.055 108.119 211.917C107.875 211.773 107.695 211.571 107.579 211.311C107.463 211.045 107.405 210.639 107.405 210.091V204.978H106.201V204.704C106.506 204.582 106.815 204.377 107.131 204.089C107.452 203.796 107.737 203.45 107.986 203.052C108.113 202.841 108.29 202.457 108.517 201.898H108.774ZM115.017 204.172C116.168 204.172 117.092 204.61 117.789 205.484C118.381 206.231 118.677 207.089 118.677 208.057C118.677 208.738 118.514 209.427 118.188 210.124C117.861 210.821 117.41 211.347 116.834 211.701C116.264 212.055 115.628 212.232 114.925 212.232C113.78 212.232 112.869 211.776 112.194 210.863C111.624 210.094 111.339 209.23 111.339 208.273C111.339 207.576 111.511 206.884 111.854 206.198C112.203 205.506 112.659 204.997 113.224 204.67C113.788 204.338 114.386 204.172 115.017 204.172ZM114.759 204.712C114.466 204.712 114.17 204.8 113.871 204.978C113.578 205.149 113.34 205.453 113.157 205.891C112.975 206.328 112.883 206.889 112.883 207.576C112.883 208.682 113.102 209.637 113.539 210.439C113.982 211.242 114.563 211.643 115.282 211.643C115.819 211.643 116.262 211.422 116.61 210.979C116.959 210.536 117.133 209.775 117.133 208.696C117.133 207.346 116.843 206.284 116.262 205.509C115.869 204.978 115.368 204.712 114.759 204.712ZM121.881 205.708C122.617 204.684 123.411 204.172 124.264 204.172C125.044 204.172 125.725 204.507 126.306 205.177C126.887 205.841 127.177 206.751 127.177 207.908C127.177 209.258 126.729 210.345 125.833 211.17C125.063 211.878 124.206 212.232 123.259 212.232C122.817 212.232 122.366 212.152 121.906 211.992C121.452 211.831 120.988 211.59 120.512 211.27V203.392C120.512 202.529 120.49 201.998 120.445 201.798C120.407 201.599 120.343 201.464 120.254 201.392C120.166 201.32 120.055 201.284 119.922 201.284C119.767 201.284 119.574 201.328 119.341 201.417L119.225 201.126L121.508 200.196H121.881V205.708ZM121.881 206.239V210.788C122.164 211.065 122.454 211.275 122.753 211.419C123.057 211.557 123.367 211.626 123.683 211.626C124.186 211.626 124.654 211.35 125.085 210.796C125.523 210.243 125.741 209.438 125.741 208.381C125.741 207.407 125.523 206.66 125.085 206.14C124.654 205.614 124.161 205.351 123.608 205.351C123.315 205.351 123.021 205.426 122.728 205.575C122.507 205.686 122.224 205.907 121.881 206.239ZM129.576 207.26C129.571 208.389 129.845 209.275 130.398 209.917C130.951 210.558 131.602 210.879 132.349 210.879C132.847 210.879 133.278 210.744 133.644 210.473C134.014 210.196 134.324 209.726 134.573 209.062L134.831 209.228C134.714 209.986 134.377 210.677 133.818 211.303C133.259 211.923 132.559 212.232 131.718 212.232C130.805 212.232 130.022 211.878 129.369 211.17C128.721 210.456 128.397 209.499 128.397 208.298C128.397 206.997 128.729 205.985 129.394 205.26C130.063 204.529 130.902 204.164 131.909 204.164C132.761 204.164 133.461 204.446 134.009 205.011C134.557 205.57 134.831 206.319 134.831 207.26H129.576ZM129.576 206.779H133.096C133.068 206.292 133.01 205.949 132.921 205.75C132.783 205.44 132.576 205.196 132.299 205.019C132.028 204.842 131.743 204.753 131.444 204.753C130.985 204.753 130.572 204.933 130.207 205.293C129.847 205.647 129.637 206.142 129.576 206.779ZM138.076 204.172V205.882C138.713 204.742 139.366 204.172 140.035 204.172C140.34 204.172 140.591 204.266 140.791 204.455C140.99 204.637 141.089 204.85 141.089 205.094C141.089 205.31 141.017 205.492 140.874 205.642C140.73 205.791 140.558 205.866 140.359 205.866C140.165 205.866 139.947 205.772 139.703 205.583C139.465 205.39 139.288 205.293 139.172 205.293C139.072 205.293 138.964 205.348 138.848 205.459C138.599 205.686 138.342 206.059 138.076 206.58V210.224C138.076 210.644 138.129 210.962 138.234 211.178C138.306 211.328 138.433 211.452 138.616 211.552C138.798 211.651 139.061 211.701 139.404 211.701V212H135.511V211.701C135.899 211.701 136.186 211.64 136.375 211.519C136.513 211.43 136.61 211.289 136.665 211.095C136.693 211.001 136.707 210.733 136.707 210.29V207.343C136.707 206.458 136.687 205.932 136.648 205.766C136.615 205.595 136.549 205.47 136.449 205.393C136.355 205.315 136.236 205.276 136.092 205.276C135.921 205.276 135.727 205.318 135.511 205.401L135.428 205.102L137.728 204.172H138.076ZM153.026 209.833L152.237 212H145.597V211.693C147.55 209.911 148.925 208.456 149.722 207.327C150.519 206.198 150.917 205.166 150.917 204.23C150.917 203.517 150.699 202.93 150.262 202.471C149.825 202.011 149.302 201.782 148.693 201.782C148.139 201.782 147.641 201.945 147.199 202.271C146.762 202.592 146.438 203.066 146.228 203.691H145.92C146.059 202.667 146.413 201.881 146.983 201.333C147.558 200.786 148.275 200.512 149.133 200.512C150.046 200.512 150.807 200.805 151.416 201.392C152.03 201.978 152.337 202.67 152.337 203.467C152.337 204.037 152.204 204.607 151.938 205.177C151.529 206.073 150.865 207.022 149.946 208.024C148.568 209.529 147.708 210.437 147.365 210.747H150.303C150.901 210.747 151.319 210.724 151.557 210.68C151.8 210.636 152.019 210.547 152.212 210.415C152.406 210.276 152.575 210.083 152.719 209.833H153.026ZM154.346 206.438C154.346 205.155 154.539 204.051 154.927 203.126C155.314 202.197 155.829 201.505 156.471 201.051C156.969 200.692 157.483 200.512 158.015 200.512C158.878 200.512 159.653 200.952 160.339 201.832C161.197 202.922 161.625 204.399 161.625 206.264C161.625 207.57 161.437 208.68 161.061 209.593C160.685 210.506 160.203 211.17 159.617 211.585C159.036 211.994 158.474 212.199 157.932 212.199C156.858 212.199 155.964 211.566 155.25 210.298C154.647 209.23 154.346 207.944 154.346 206.438ZM155.973 206.646C155.973 208.195 156.164 209.46 156.545 210.439C156.861 211.264 157.331 211.676 157.957 211.676C158.255 211.676 158.565 211.543 158.886 211.278C159.207 211.007 159.451 210.556 159.617 209.925C159.871 208.973 159.999 207.631 159.999 205.899C159.999 204.615 159.866 203.544 159.6 202.687C159.401 202.05 159.144 201.599 158.828 201.333C158.601 201.151 158.327 201.06 158.006 201.06C157.63 201.06 157.295 201.228 157.002 201.566C156.604 202.025 156.332 202.747 156.188 203.732C156.045 204.717 155.973 205.689 155.973 206.646ZM170.026 209.833L169.237 212H162.597V211.693C164.55 209.911 165.925 208.456 166.722 207.327C167.519 206.198 167.917 205.166 167.917 204.23C167.917 203.517 167.699 202.93 167.262 202.471C166.825 202.011 166.302 201.782 165.693 201.782C165.139 201.782 164.641 201.945 164.199 202.271C163.762 202.592 163.438 203.066 163.228 203.691H162.92C163.059 202.667 163.413 201.881 163.983 201.333C164.558 200.786 165.275 200.512 166.133 200.512C167.046 200.512 167.807 200.805 168.416 201.392C169.03 201.978 169.337 202.67 169.337 203.467C169.337 204.037 169.204 204.607 168.938 205.177C168.529 206.073 167.865 207.022 166.946 208.024C165.568 209.529 164.708 210.437 164.365 210.747H167.303C167.901 210.747 168.319 210.724 168.557 210.68C168.8 210.636 169.019 210.547 169.212 210.415C169.406 210.276 169.575 210.083 169.719 209.833H170.026ZM172.724 201.848L175.463 200.512H175.737V210.016C175.737 210.647 175.762 211.04 175.812 211.195C175.867 211.35 175.978 211.469 176.144 211.552C176.31 211.635 176.647 211.682 177.156 211.693V212H172.923V211.693C173.454 211.682 173.797 211.638 173.952 211.56C174.107 211.477 174.215 211.369 174.276 211.236C174.337 211.098 174.367 210.691 174.367 210.016V203.94C174.367 203.121 174.34 202.595 174.284 202.363C174.245 202.186 174.174 202.056 174.068 201.973C173.969 201.89 173.847 201.848 173.703 201.848C173.498 201.848 173.213 201.934 172.848 202.105L172.724 201.848Z" fill="#A96191"/>
<path d="M31.609 57.712C31.463 58.3447 31.1223 58.8313 30.587 59.172C30.0517 59.464 29.4677 59.537 28.835 59.391C28.2023 59.245 27.7157 58.88 27.375 58.296L25.915 55.814C24.9417 54.208 24.163 53.0157 23.579 52.237C23.0437 51.5557 22.2407 50.8013 21.17 49.974C20.2453 49.244 19.2477 48.806 18.177 48.66C17.301 48.5627 16.4737 48.7817 15.695 49.317C14.7217 49.9983 13.7483 51.0447 12.775 52.456C11.8017 53.8673 11.023 55.522 10.439 57.42C9.90367 59.0747 9.83067 60.632 10.22 62.092C10.512 63.3573 11.3637 64.428 12.775 65.304C14.381 66.326 15.8167 66.9587 17.082 67.202C18.5907 67.494 20.2453 67.7617 22.046 68.005C24.1387 68.2483 25.8177 68.7107 27.083 69.392C28.3483 70.0733 29.2973 70.7547 29.93 71.436C30.514 72.02 31.171 72.8473 31.901 73.918C32.8257 75.232 33.3853 76.7893 33.58 78.59C33.7747 80.2447 33.726 81.9967 33.434 83.846C33.0933 85.8413 32.3147 87.6907 31.098 89.394C29.93 91.0487 28.4213 92.5087 26.572 93.774C24.7227 95.088 22.5813 96.037 20.148 96.621C17.6173 97.205 15.1353 97.2293 12.702 96.694C10.1713 96.11 8.07867 95.0393 6.424 93.482C4.818 91.9733 3.77167 90.416 3.285 88.81C2.74967 87.058 2.72533 85.5493 3.212 84.284L3.65 83.116C3.84467 82.4833 4.234 82.0453 4.818 81.802C5.45067 81.51 6.059 81.4857 6.643 81.729C7.227 81.9723 7.64067 82.386 7.884 82.97C8.176 83.554 8.22467 84.138 8.03 84.722L7.592 85.89C7.446 86.182 7.49467 86.693 7.738 87.423C7.98133 88.2503 8.614 89.1507 9.636 90.124C10.658 91.0487 12.0207 91.7057 13.724 92.095C15.476 92.533 17.2523 92.533 19.053 92.095C20.9023 91.657 22.5083 90.9513 23.871 89.978C25.2823 89.0047 26.426 87.9097 27.302 86.693C28.0807 85.5737 28.5673 84.357 28.762 83.043C29.0053 81.6317 29.0783 80.3177 28.981 79.101C28.835 78.079 28.543 77.2273 28.105 76.546C27.4723 75.67 26.9613 75.0373 26.572 74.648C26.28 74.3073 25.7203 73.9423 24.893 73.553C24.163 73.115 22.995 72.7987 21.389 72.604C19.5397 72.3607 17.812 72.093 16.206 71.801C14.4053 71.4603 12.4343 70.6087 10.293 69.246C7.85967 67.7373 6.32667 65.742 5.694 63.26C5.06133 60.9727 5.13433 58.5637 5.913 56.033C6.643 53.697 7.64067 51.6043 8.906 49.755C10.22 47.9057 11.607 46.47 13.067 45.448C14.7703 44.2313 16.6683 43.769 18.761 44.061C20.7077 44.3043 22.4597 45.0343 24.017 46.251C25.4283 47.3217 26.5233 48.368 27.302 49.39C27.9833 50.3147 28.8593 51.653 29.93 53.405L31.39 55.96C31.7307 56.4953 31.8037 57.0793 31.609 57.712ZM40.515 72.312C39.931 71.9713 39.566 71.4847 39.42 70.852C39.274 70.2193 39.347 69.6353 39.639 69.1L40.515 67.713C40.4663 66.0583 40.442 64.355 40.442 62.603C40.3933 59.975 40.4177 57.3957 40.515 54.865C40.6123 52.3343 40.734 50.3147 40.88 48.806C40.9773 47.3947 41.0503 45.8373 41.099 44.134L41.172 41.579C41.172 40.8977 41.4153 40.338 41.902 39.9C42.3887 39.462 42.9483 39.2673 43.581 39.316C44.2137 39.316 44.749 39.5593 45.187 40.046C45.625 40.484 45.844 41.0193 45.844 41.652L45.771 44.28C45.7223 46.0807 45.6493 47.7353 45.552 49.244C45.406 50.6553 45.2843 52.5777 45.187 55.011C45.1383 57.2497 45.114 59.5127 45.114 61.8C45.7953 61.1187 46.5253 60.5347 47.304 60.048C48.5207 59.2207 49.713 58.5637 50.881 58.077C52.1463 57.493 53.5333 57.128 55.042 56.982C56.4047 56.836 57.451 56.7873 58.181 56.836C58.911 56.9333 59.7627 57.1523 60.736 57.493C61.8067 57.8823 62.707 58.3933 63.437 59.026C64.167 59.6587 64.8727 60.6077 65.554 61.873C66.138 62.9923 66.6247 64.1117 67.014 65.231C67.4033 66.4477 67.6467 67.6157 67.744 68.735C67.8413 69.757 67.89 70.8763 67.89 72.093C67.89 73.407 67.8413 74.4533 67.744 75.232C67.598 76.0107 67.4033 76.8867 67.16 77.86C66.9653 78.8333 66.722 79.758 66.43 80.634C66.1867 81.6073 65.919 82.459 65.627 83.189C65.3837 83.8703 65.189 84.4057 65.043 84.795C64.9457 85.087 64.824 85.4033 64.678 85.744C64.5807 85.9873 64.5077 86.2793 64.459 86.62C64.313 87.058 64.167 87.496 64.021 87.934L63.802 88.518C63.5587 89.1507 63.145 89.613 62.561 89.905C61.977 90.1483 61.3687 90.1483 60.736 89.905C60.152 89.6617 59.714 89.248 59.422 88.664C59.1787 88.08 59.1787 87.496 59.422 86.912L59.641 86.328C59.7383 86.036 59.8357 85.7197 59.933 85.379C60.0303 84.941 60.152 84.5273 60.298 84.138C60.444 83.7973 60.59 83.4323 60.736 83.043C60.8333 82.751 61.0037 82.2643 61.247 81.583C61.4903 80.9503 61.7337 80.2203 61.977 79.393C62.2203 78.5657 62.4393 77.6897 62.634 76.765C62.8287 75.889 62.9747 75.159 63.072 74.575C63.1693 73.991 63.218 73.188 63.218 72.166C63.218 71.0467 63.1693 70.0247 63.072 69.1C63.0233 68.37 62.853 67.5913 62.561 66.764C62.269 65.8393 61.8797 64.939 61.393 64.063C61.0037 63.333 60.663 62.8463 60.371 62.603C60.079 62.311 59.6653 62.0677 59.13 61.873C58.546 61.6783 58.0593 61.5567 57.67 61.508C57.2807 61.4593 56.5507 61.508 55.48 61.654C54.5067 61.7513 53.6063 61.9703 52.779 62.311C51.8543 62.749 50.881 63.2843 49.859 63.917C48.9343 64.5497 48.0583 65.304 47.231 66.18C46.501 67.0073 45.8197 67.932 45.187 68.954C45.187 69.2947 45.187 69.5867 45.187 69.83C45.2357 72.166 45.26 74.1127 45.26 75.67C45.26 77.1787 45.2843 78.4927 45.333 79.612C45.3817 80.78 45.406 81.656 45.406 82.24C45.4547 82.824 45.5033 83.408 45.552 83.992C45.6493 84.576 45.698 85.0627 45.698 85.452C45.7467 85.9387 45.771 86.401 45.771 86.839C45.771 87.277 45.7467 87.6907 45.698 88.08L45.625 88.591C45.5763 89.2237 45.2843 89.759 44.749 90.197C44.2623 90.5863 43.7027 90.7567 43.07 90.708C42.4373 90.6107 41.902 90.3187 41.464 89.832C41.0747 89.2967 40.9287 88.7127 41.026 88.08L41.099 87.569C41.099 87.3257 41.099 87.0823 41.099 86.839C41.099 86.547 41.099 86.2307 41.099 85.89C41.0503 85.5007 41.0017 85.0383 40.953 84.503C40.8557 83.8217 40.7827 83.1647 40.734 82.532C40.734 81.8993 40.7097 80.999 40.661 79.831C40.6123 78.663 40.588 77.276 40.588 75.67C40.588 74.6967 40.5637 73.5773 40.515 72.312ZM97.2925 80.05C97.0491 79.32 96.7571 78.7603 96.4165 78.371C95.9298 77.8843 95.0295 77.349 93.7155 76.765C92.3041 76.0837 90.7711 75.5727 89.1165 75.232C87.5105 74.8427 86.0018 74.6723 84.5905 74.721C83.4225 74.7697 82.3518 75.086 81.3785 75.67C80.4538 76.2053 79.6995 77.0327 79.1155 78.152C78.5315 79.2713 78.2151 80.1473 78.1665 80.78C78.1665 81.2667 78.3611 81.948 78.7505 82.824C79.1398 83.554 79.9671 84.211 81.2325 84.795C82.7411 85.4763 84.5418 86.0117 86.6345 86.401C88.6785 86.693 90.6008 86.6687 92.4015 86.328C94.2995 85.9873 95.7351 85.5493 96.7085 85.014L97.0005 84.868C97.0491 84.284 97.0978 83.554 97.1465 82.678C97.1951 81.8993 97.2438 81.0233 97.2925 80.05ZM96.9275 89.978C95.9055 90.3187 94.7131 90.635 93.3505 90.927C90.9658 91.4137 88.4838 91.438 85.9045 91C83.3738 90.562 81.1595 89.905 79.2615 89.029C77.0715 88.007 75.5385 86.6443 74.6625 84.941C73.7865 83.335 73.3971 81.8507 73.4945 80.488C73.5918 79.174 74.1028 77.641 75.0275 75.889C76.0008 74.0883 77.3148 72.677 78.9695 71.655C80.6241 70.633 82.4491 70.0977 84.4445 70.049C86.2451 70.0003 88.1431 70.195 90.1385 70.633C92.1338 71.1197 93.9831 71.7523 95.6865 72.531C96.1731 72.7743 96.6598 73.0177 97.1465 73.261C97.0005 71.509 96.7085 69.7813 96.2705 68.078C95.6865 65.6933 94.9078 63.8683 93.9345 62.603C93.0585 61.581 92.3528 61.0457 91.8175 60.997C91.1361 60.8997 90.1628 61.1673 88.8975 61.8C87.6321 62.384 86.7318 63.1627 86.1965 64.136C85.8558 64.7687 85.6125 65.2553 85.4665 65.596V65.815C85.6125 66.4477 85.5151 67.0317 85.1745 67.567C84.8825 68.1023 84.4201 68.4673 83.7875 68.662C83.1548 68.808 82.5465 68.7107 81.9625 68.37C81.4271 68.0293 81.0865 67.5427 80.9405 66.91L80.7945 66.326C80.7458 66.034 80.7215 65.742 80.7215 65.45C80.7215 65.158 80.7215 64.9147 80.7215 64.72C80.7701 64.4767 80.8431 64.209 80.9405 63.917C81.0865 63.625 81.2081 63.406 81.3055 63.26C81.4028 63.114 81.5245 62.895 81.6705 62.603C81.8651 62.2623 82.0111 62.019 82.1085 61.873C83.1305 60.0237 84.7121 58.588 86.8535 57.566C88.9948 56.544 90.8441 56.1303 92.4015 56.325C94.2021 56.5683 95.9055 57.6877 97.5115 59.683C98.9715 61.4837 100.066 63.917 100.796 66.983C101.526 69.8543 101.916 72.75 101.964 75.67C101.964 77.0327 101.964 78.298 101.964 79.466C102.256 80.926 102.329 82.678 102.183 84.722C102.037 86.9607 101.794 88.4693 101.453 89.248C101.453 89.3453 101.429 89.4913 101.38 89.686C101.38 89.832 101.283 90.0753 101.088 90.416C100.942 90.7567 100.748 91.0243 100.504 91.219C100.261 91.4137 99.8961 91.4867 99.4095 91.438C98.9228 91.3893 98.3631 91.1703 97.7305 90.781L96.9275 89.978ZM114.862 84.065C115.105 84.2597 115.349 84.4543 115.592 84.649C116.273 85.1357 117.028 85.525 117.855 85.817C118.634 86.109 119.364 86.255 120.045 86.255C120.824 86.255 121.627 86.1577 122.454 85.963C123.233 85.7683 124.084 85.4277 125.009 84.941C125.982 84.4543 126.931 83.773 127.856 82.897C128.829 82.021 129.535 81.291 129.973 80.707C130.362 80.1717 130.825 79.2713 131.36 78.006C131.895 76.7893 132.26 75.3537 132.455 73.699C132.698 71.947 132.747 70.3167 132.601 68.808C132.552 67.4453 132.26 66.3017 131.725 65.377C131.141 64.355 130.508 63.552 129.827 62.968C129.146 62.4327 128.44 62.092 127.71 61.946C126.931 61.8 126.031 61.873 125.009 62.165C123.987 62.4083 123.038 62.968 122.162 63.844C121.14 64.8173 120.191 66.0097 119.315 67.421C118.488 68.8323 117.806 70.3897 117.271 72.093C116.736 73.9423 116.225 75.9133 115.738 78.006C115.3 79.9527 115.008 81.9723 114.862 84.065ZM115.008 89.686C114.667 90.27 114.254 90.635 113.767 90.781C113.329 90.927 112.891 90.927 112.453 90.781C112.064 90.5863 111.674 90.3673 111.285 90.124C110.944 89.832 110.677 89.5643 110.482 89.321L110.19 88.956C110.093 88.372 110.068 87.4473 110.117 86.182C110.117 86.0847 110.093 85.9873 110.044 85.89C109.703 85.5007 109.509 85.0383 109.46 84.503C109.411 83.919 109.533 83.3837 109.825 82.897C109.776 81.729 109.703 80.415 109.606 78.955C109.509 77.057 109.436 74.867 109.387 72.385C109.387 69.8543 109.411 67.348 109.46 64.866C109.557 62.4327 109.557 59.9263 109.46 57.347C109.363 54.7677 109.241 52.456 109.095 50.412C108.949 48.4167 108.779 46.8593 108.584 45.74C108.438 44.6207 108.316 43.8177 108.219 43.331L108 42.455C107.854 41.871 107.951 41.3113 108.292 40.776C108.633 40.192 109.095 39.827 109.679 39.681C110.312 39.535 110.896 39.6323 111.431 39.973C112.015 40.3137 112.38 40.8003 112.526 41.433L112.745 42.236C112.891 42.82 113.061 43.7447 113.256 45.01C113.451 46.2753 113.621 47.9787 113.767 50.12C113.913 52.164 114.035 54.5243 114.132 57.201C114.229 59.8777 114.229 62.4813 114.132 65.012C114.132 65.742 114.132 66.4963 114.132 67.275C114.473 66.4963 114.862 65.742 115.3 65.012C116.371 63.26 117.587 61.7513 118.95 60.486C120.41 59.0747 122.016 58.1257 123.768 57.639C125.52 57.201 127.126 57.128 128.586 57.42C130.095 57.712 131.482 58.3447 132.747 59.318C133.915 60.2913 134.937 61.5323 135.813 63.041C136.689 64.647 137.176 66.4477 137.273 68.443C137.419 70.2923 137.37 72.2147 137.127 74.21C136.884 76.3513 136.397 78.225 135.667 79.831C134.986 81.437 134.329 82.6537 133.696 83.481C133.063 84.3083 132.163 85.2817 130.995 86.401C129.778 87.4717 128.513 88.372 127.199 89.102C125.934 89.7833 124.693 90.27 123.476 90.562C122.308 90.8053 121.164 90.927 120.045 90.927C118.828 90.927 117.563 90.6837 116.249 90.197C115.811 90.051 115.397 89.8807 115.008 89.686ZM144.825 59.683C145.311 59.245 145.871 59.0503 146.504 59.099C147.136 59.099 147.672 59.3423 148.11 59.829C148.596 60.267 148.815 60.8023 148.767 61.435V61.508C150.129 60.6807 151.565 60.0967 153.074 59.756C155.312 59.2207 157.137 59.1963 158.549 59.683C160.106 60.2183 161.42 61.3133 162.491 62.968C163.561 64.72 163.829 66.6667 163.294 68.808C162.758 70.8033 161.444 72.4823 159.352 73.845C159.206 73.9423 159.06 74.0397 158.914 74.137C159.352 74.6237 159.741 75.1347 160.082 75.67C160.958 76.984 162.028 78.3223 163.294 79.685C164.462 80.999 165.557 81.948 166.579 82.532C167.211 82.8727 167.674 83.116 167.966 83.262H168.185C168.817 83.262 169.353 83.5053 169.791 83.992C170.229 84.4787 170.423 85.0383 170.375 85.671C170.375 86.3037 170.131 86.839 169.645 87.277C169.207 87.715 168.671 87.934 168.039 87.934H167.601C167.26 87.934 166.919 87.8853 166.579 87.788C166.238 87.6907 165.995 87.6177 165.849 87.569C165.703 87.4717 165.411 87.3013 164.973 87.058C164.583 86.8147 164.34 86.6443 164.243 86.547C162.831 85.7197 161.371 84.503 159.863 82.897C158.403 81.3397 157.162 79.7823 156.14 78.225C155.604 77.349 154.996 76.6433 154.315 76.108C153.049 76.4 151.808 76.4973 150.592 76.4C149.716 76.3513 149.107 76.2783 148.767 76.181C148.815 77.495 148.815 78.736 148.767 79.904C148.767 81.7047 148.694 83.116 148.548 84.138C148.402 85.16 148.183 86.036 147.891 86.766L147.599 87.569C147.404 88.2017 146.99 88.664 146.358 88.956C145.774 89.1993 145.19 89.2237 144.606 89.029C144.022 88.7857 143.584 88.372 143.292 87.788C143 87.204 142.975 86.5957 143.219 85.963L143.511 85.16C143.657 84.722 143.803 84.138 143.949 83.408C144.046 82.6293 144.095 81.4613 144.095 79.904C144.143 78.2493 144.119 76.4973 144.022 74.648C143.973 73.2853 143.949 71.8983 143.949 70.487C143.073 69.7083 142.854 68.808 143.292 67.786L143.876 66.399C143.924 66.3503 143.949 66.2773 143.949 66.18C143.997 65.2067 144.022 64.3307 144.022 63.552L144.095 61.289C144.143 60.6563 144.387 60.121 144.825 59.683ZM148.621 71.363L150.081 70.633C151.735 70.341 153.317 70.487 154.826 71.071C155.41 70.779 156.067 70.3897 156.797 69.903C157.867 69.2217 158.524 68.443 158.768 67.567C158.962 66.7883 158.865 66.0827 158.476 65.45C158.038 64.72 157.575 64.282 157.089 64.136C156.505 63.8927 155.531 63.9413 154.169 64.282C152.709 64.6227 151.395 65.2553 150.227 66.18C149.545 66.6667 149.01 67.129 148.621 67.567C148.621 67.9563 148.621 68.37 148.621 68.808C148.621 68.808 148.621 69.6597 148.621 71.363ZM176.079 45.229C176.079 44.5477 176.298 43.988 176.736 43.55C177.174 43.112 177.71 42.893 178.342 42.893C179.024 42.893 179.583 43.112 180.021 43.55L180.313 43.769C180.751 44.207 180.97 44.7667 180.97 45.448C180.97 46.0807 180.727 46.6403 180.24 47.127C179.802 47.565 179.267 47.784 178.634 47.784C178.002 47.784 177.442 47.5407 176.955 47.054L176.736 46.835C176.298 46.397 176.079 45.8617 176.079 45.229ZM178.269 56.836C178.805 56.398 179.389 56.2277 180.021 56.325C180.654 56.3737 181.165 56.6657 181.554 57.201C181.944 57.6877 182.114 58.2473 182.065 58.88L181.992 59.537C181.944 59.975 181.798 60.997 181.554 62.603C181.36 64.063 181.262 65.6447 181.262 67.348C181.262 69.1487 181.287 70.852 181.335 72.458C181.384 74.1127 181.408 75.6457 181.408 77.057C181.408 78.4197 181.408 79.758 181.408 81.072C181.408 82.386 181.433 83.335 181.481 83.919C181.481 84.5517 181.481 85.233 181.481 85.963C181.481 86.5957 181.481 87.058 181.481 87.35V87.861C181.481 88.4937 181.262 89.0533 180.824 89.54C180.386 89.978 179.851 90.2213 179.218 90.27C178.586 90.27 178.026 90.051 177.539 89.613C177.053 89.175 176.809 88.6397 176.809 88.007V87.496C176.809 87.1553 176.809 86.62 176.809 85.89C176.809 85.2087 176.809 84.576 176.809 83.992C176.761 83.3593 176.736 82.386 176.736 81.072C176.736 79.758 176.736 78.4197 176.736 77.057C176.736 75.6943 176.712 74.21 176.663 72.604C176.615 70.9493 176.59 69.1973 176.59 67.348C176.59 65.4013 176.712 63.5763 176.955 61.873C177.15 60.3643 177.272 59.4153 177.32 59.026L177.393 58.369C177.491 57.7363 177.783 57.2253 178.269 56.836ZM188.793 57.274C189.231 56.7873 189.766 56.544 190.399 56.544C191.031 56.4953 191.591 56.69 192.078 57.128C192.564 57.566 192.832 58.1013 192.881 58.734V59.172C192.881 59.318 192.881 59.537 192.881 59.829C193.951 58.9043 194.998 58.15 196.02 57.566C197.626 56.5927 199.28 56.1303 200.984 56.179C202.541 56.2277 203.758 56.4467 204.634 56.836C205.51 57.274 206.386 58.0527 207.262 59.172C208.089 60.1453 208.819 61.435 209.452 63.041C210.036 64.5983 210.474 66.2287 210.766 67.932C211.009 69.538 211.155 70.8033 211.204 71.728C211.301 72.604 211.35 73.7963 211.35 75.305C211.398 76.765 211.374 78.1033 211.277 79.32C211.228 80.488 211.179 81.51 211.131 82.386C211.033 83.2133 210.985 83.9677 210.985 84.649C210.985 85.4277 210.96 86.0603 210.912 86.547C210.912 86.985 210.887 87.3743 210.839 87.715V88.372C210.79 89.0047 210.522 89.54 210.036 89.978C209.549 90.416 208.989 90.6107 208.357 90.562C207.724 90.5133 207.189 90.27 206.751 89.832C206.313 89.3453 206.118 88.7613 206.167 88.08V87.496C206.215 87.1067 206.24 86.693 206.24 86.255C206.288 85.817 206.313 85.2573 206.313 84.576C206.313 83.7973 206.361 82.97 206.459 82.094C206.507 81.218 206.556 80.196 206.605 79.028C206.702 77.9573 206.726 76.7407 206.678 75.378C206.678 74.0153 206.629 72.9447 206.532 72.166C206.483 71.3387 206.337 70.1707 206.094 68.662C205.899 67.2507 205.558 65.9367 205.072 64.72C204.634 63.6007 204.171 62.7247 203.685 62.092C203.198 61.508 202.833 61.1673 202.59 61.07C202.346 60.924 201.762 60.851 200.838 60.851C200.059 60.8023 199.256 61.0213 198.429 61.508C197.407 62.1893 196.287 63.0653 195.071 64.136C193.951 65.2067 193.27 65.9367 193.027 66.326C192.881 66.5207 192.783 66.7153 192.735 66.91C192.686 67.786 192.637 68.7593 192.589 69.83C192.491 72.5067 192.443 75.1833 192.443 77.86C192.443 80.5367 192.491 82.7023 192.589 84.357C192.686 86.0603 192.759 87.1553 192.808 87.642V88.226C192.856 88.9073 192.637 89.4913 192.151 89.978C191.713 90.416 191.177 90.6593 190.545 90.708C189.912 90.708 189.352 90.489 188.866 90.051C188.428 89.613 188.184 89.0777 188.136 88.445V87.788C188.087 87.3987 188.014 86.3523 187.917 84.649C187.819 82.897 187.771 80.634 187.771 77.86C187.771 75.1347 187.819 72.385 187.917 69.611C187.965 69.173 187.99 68.7593 187.99 68.37C187.892 68.078 187.868 67.7617 187.917 67.421L187.99 66.545C188.038 66.4477 188.063 66.3503 188.063 66.253C188.111 64.9877 188.16 63.7953 188.209 62.676C188.209 60.8267 188.209 59.756 188.209 59.464V58.953C188.16 58.3203 188.355 57.7607 188.793 57.274ZM240.869 80.05C240.625 79.32 240.333 78.7603 239.993 78.371C239.506 77.8843 238.606 77.349 237.292 76.765C235.88 76.0837 234.347 75.5727 232.693 75.232C231.087 74.8427 229.578 74.6723 228.167 74.721C226.999 74.7697 225.928 75.086 224.955 75.67C224.03 76.2053 223.276 77.0327 222.692 78.152C222.108 79.2713 221.791 80.1473 221.743 80.78C221.743 81.2667 221.937 81.948 222.327 82.824C222.716 83.554 223.543 84.211 224.809 84.795C226.317 85.4763 228.118 86.0117 230.211 86.401C232.255 86.693 234.177 86.6687 235.978 86.328C237.876 85.9873 239.311 85.5493 240.285 85.014L240.577 84.868C240.625 84.284 240.674 83.554 240.723 82.678C240.771 81.8993 240.82 81.0233 240.869 80.05ZM240.504 89.978C239.482 90.3187 238.289 90.635 236.927 90.927C234.542 91.4137 232.06 91.438 229.481 91C226.95 90.562 224.736 89.905 222.838 89.029C220.648 88.007 219.115 86.6443 218.239 84.941C217.363 83.335 216.973 81.8507 217.071 80.488C217.168 79.174 217.679 77.641 218.604 75.889C219.577 74.0883 220.891 72.677 222.546 71.655C224.2 70.633 226.025 70.0977 228.021 70.049C229.821 70.0003 231.719 70.195 233.715 70.633C235.71 71.1197 237.559 71.7523 239.263 72.531C239.749 72.7743 240.236 73.0177 240.723 73.261C240.577 71.509 240.285 69.7813 239.847 68.078C239.263 65.6933 238.484 63.8683 237.511 62.603C236.635 61.581 235.929 61.0457 235.394 60.997C234.712 60.8997 233.739 61.1673 232.474 61.8C231.208 62.384 230.308 63.1627 229.773 64.136C229.432 64.7687 229.189 65.2553 229.043 65.596V65.815C229.189 66.4477 229.091 67.0317 228.751 67.567C228.459 68.1023 227.996 68.4673 227.364 68.662C226.731 68.808 226.123 68.7107 225.539 68.37C225.003 68.0293 224.663 67.5427 224.517 66.91L224.371 66.326C224.322 66.034 224.298 65.742 224.298 65.45C224.298 65.158 224.298 64.9147 224.298 64.72C224.346 64.4767 224.419 64.209 224.517 63.917C224.663 63.625 224.784 63.406 224.882 63.26C224.979 63.114 225.101 62.895 225.247 62.603C225.441 62.2623 225.587 62.019 225.685 61.873C226.707 60.0237 228.288 58.588 230.43 57.566C232.571 56.544 234.42 56.1303 235.978 56.325C237.778 56.5683 239.482 57.6877 241.088 59.683C242.548 61.4837 243.643 63.917 244.373 66.983C245.103 69.8543 245.492 72.75 245.541 75.67C245.541 77.0327 245.541 78.298 245.541 79.466C245.833 80.926 245.906 82.678 245.76 84.722C245.614 86.9607 245.37 88.4693 245.03 89.248C245.03 89.3453 245.005 89.4913 244.957 89.686C244.957 89.832 244.859 90.0753 244.665 90.416C244.519 90.7567 244.324 91.0243 244.081 91.219C243.837 91.4137 243.472 91.4867 242.986 91.438C242.499 91.3893 241.939 91.1703 241.307 90.781L240.504 89.978Z" fill="#A96191"/>
<path d="M53.796 131.493C53.2607 131.104 52.9443 130.593 52.847 129.96C52.7497 129.327 52.8957 128.743 53.285 128.208L53.869 127.478C53.9663 127.332 54.0637 127.162 54.161 126.967C54.161 126.918 54.1853 126.87 54.234 126.821C54.234 124.972 54.2583 123.633 54.307 122.806L54.38 121.565C54.4287 120.932 54.6963 120.397 55.183 119.959C55.6697 119.521 56.2293 119.326 56.862 119.375C57.4947 119.375 58.03 119.618 58.468 120.105C58.906 120.592 59.1007 121.151 59.052 121.784L58.979 122.514C59.709 121.979 60.4877 121.541 61.315 121.2C62.9697 120.373 64.8677 119.813 67.009 119.521C69.199 119.229 70.9997 119.229 72.411 119.521C73.8223 119.813 75.3067 120.373 76.864 121.2C78.5187 122.076 79.9057 123.22 81.025 124.631C81.9983 125.848 82.8013 126.894 83.434 127.77C84.0667 128.743 84.6993 129.936 85.332 131.347C86.0133 132.807 86.573 134.34 87.011 135.946C87.449 137.552 87.7167 139.109 87.814 140.618C87.9113 142.224 87.6923 144.049 87.157 146.093C86.6703 148.137 85.989 149.865 85.113 151.276C84.2857 152.59 83.3123 153.831 82.193 154.999C81.1223 156.167 80.0517 157.165 78.981 157.992C77.959 158.771 76.8883 159.452 75.769 160.036C74.6983 160.62 73.6277 161.155 72.557 161.642C71.4377 162.129 70.3183 162.518 69.199 162.81C68.1283 163.102 67.0577 163.321 65.987 163.467C64.9163 163.613 63.87 163.71 62.848 163.759C61.7773 163.759 60.7067 163.637 59.636 163.394V163.686C59.636 164.319 59.3927 164.854 58.906 165.292C58.468 165.73 57.9083 165.949 57.227 165.949C56.5943 165.949 56.059 165.706 55.621 165.219C55.183 164.781 54.964 164.246 54.964 163.613V163.102C54.964 162.761 54.964 162.299 54.964 161.715C55.0127 161.228 55.0127 160.839 54.964 160.547C54.964 160.206 54.9397 159.768 54.891 159.233C54.8423 158.6 54.7693 157.554 54.672 156.094C54.5747 154.585 54.5503 152.931 54.599 151.13C54.6477 149.524 54.6477 147.723 54.599 145.728C54.5017 143.635 54.453 141.494 54.453 139.304C54.4043 137.163 54.3557 134.997 54.307 132.807C54.2583 132.466 54.234 132.101 54.234 131.712C54.088 131.663 53.942 131.59 53.796 131.493ZM59.49 158.503C59.8307 158.649 60.22 158.771 60.658 158.868C61.388 159.014 62.0937 159.087 62.775 159.087C63.6023 159.087 64.454 159.038 65.33 158.941C66.206 158.795 67.082 158.6 67.958 158.357C68.834 158.114 69.7343 157.773 70.659 157.335C71.6323 156.897 72.6057 156.435 73.579 155.948C74.5037 155.461 75.3797 154.902 76.207 154.269C77.0343 153.588 77.886 152.785 78.762 151.86C79.6867 150.887 80.4897 149.865 81.171 148.794C81.8037 147.772 82.3147 146.482 82.704 144.925C83.0933 143.368 83.2393 142.029 83.142 140.91C83.0447 139.742 82.8257 138.501 82.485 137.187C82.1443 135.824 81.682 134.535 81.098 133.318C80.514 132.101 79.9787 131.104 79.492 130.325C79.0053 129.595 78.324 128.67 77.448 127.551C76.6693 126.626 75.7447 125.872 74.674 125.288C73.506 124.655 72.4597 124.266 71.535 124.12C70.6103 123.925 69.2963 123.95 67.593 124.193C65.9383 124.388 64.527 124.777 63.359 125.361C62.1423 125.945 60.9743 126.772 59.855 127.843C59.5143 128.184 59.1737 128.524 58.833 128.865C58.8817 130.033 58.9303 131.298 58.979 132.661C59.0277 134.851 59.0763 137.041 59.125 139.231C59.125 141.421 59.1737 143.538 59.271 145.582C59.3197 147.675 59.3197 149.597 59.271 151.349C59.2223 152.955 59.2467 154.439 59.344 155.802C59.3927 157.019 59.4413 157.919 59.49 158.503ZM93.4818 119.229C93.4818 118.548 93.7008 117.988 94.1388 117.55C94.5768 117.112 95.1121 116.893 95.7448 116.893C96.4261 116.893 96.9858 117.112 97.4238 117.55L97.7158 117.769C98.1538 118.207 98.3728 118.767 98.3728 119.448C98.3728 120.081 98.1294 120.64 97.6428 121.127C97.2048 121.565 96.6694 121.784 96.0368 121.784C95.4041 121.784 94.8444 121.541 94.3578 121.054L94.1388 120.835C93.7008 120.397 93.4818 119.862 93.4818 119.229ZM95.6718 130.836C96.2071 130.398 96.7911 130.228 97.4238 130.325C98.0564 130.374 98.5674 130.666 98.9568 131.201C99.3461 131.688 99.5164 132.247 99.4678 132.88L99.3948 133.537C99.3461 133.975 99.2001 134.997 98.9568 136.603C98.7621 138.063 98.6648 139.645 98.6648 141.348C98.6648 143.149 98.6891 144.852 98.7378 146.458C98.7864 148.113 98.8108 149.646 98.8108 151.057C98.8108 152.42 98.8108 153.758 98.8108 155.072C98.8108 156.386 98.8351 157.335 98.8838 157.919C98.8838 158.552 98.8838 159.233 98.8838 159.963C98.8838 160.596 98.8838 161.058 98.8838 161.35V161.861C98.8838 162.494 98.6648 163.053 98.2268 163.54C97.7888 163.978 97.2534 164.221 96.6208 164.27C95.9881 164.27 95.4284 164.051 94.9418 163.613C94.4551 163.175 94.2118 162.64 94.2118 162.007V161.496C94.2118 161.155 94.2118 160.62 94.2118 159.89C94.2118 159.209 94.2118 158.576 94.2118 157.992C94.1631 157.359 94.1388 156.386 94.1388 155.072C94.1388 153.758 94.1388 152.42 94.1388 151.057C94.1388 149.694 94.1144 148.21 94.0658 146.604C94.0171 144.949 93.9928 143.197 93.9928 141.348C93.9928 139.401 94.1144 137.576 94.3578 135.873C94.5524 134.364 94.6741 133.415 94.7228 133.026L94.7958 132.369C94.8931 131.736 95.1851 131.225 95.6718 130.836ZM130.65 145.29C130.602 147.334 130.553 149.329 130.504 151.276C130.407 152.444 130.334 153.588 130.285 154.707C130.042 158.454 129.507 161.812 128.679 164.781C127.803 167.993 126.708 170.329 125.394 171.789C123.788 173.541 122.255 174.368 120.795 174.271C119.968 174.222 119.116 174.076 118.24 173.833L117.145 173.541C116.561 173.395 116.099 173.03 115.758 172.446C115.418 171.862 115.32 171.254 115.466 170.621C115.661 170.037 116.05 169.575 116.634 169.234C117.218 168.942 117.802 168.869 118.386 169.015L119.481 169.38C119.968 169.477 120.43 169.55 120.868 169.599C121.16 169.404 121.501 169.088 121.89 168.65C122.718 167.725 123.472 166.022 124.153 163.54C124.689 161.593 125.102 159.452 125.394 157.116C125.346 157.165 125.297 157.213 125.248 157.262C123.204 159.257 120.406 159.817 116.853 158.941C113.398 158.114 110.843 155.778 109.188 151.933C107.68 148.575 106.852 144.706 106.706 140.326C106.658 138.817 106.609 137.479 106.56 136.311C106.025 136.068 105.636 135.678 105.392 135.143C105.149 134.608 105.1 134.072 105.246 133.537L105.83 131.712C105.83 131.663 105.806 131.566 105.757 131.42C105.757 131.274 105.806 131.079 105.903 130.836C106.001 130.593 106.098 130.349 106.195 130.106C106.341 129.863 106.585 129.644 106.925 129.449C107.315 129.254 107.777 129.157 108.312 129.157C109.383 129.06 110.137 129.279 110.575 129.814C111.062 130.301 111.257 130.812 111.159 131.347L111.086 132.223C111.135 133.488 111.232 136.141 111.378 140.18C111.476 143.927 112.157 147.237 113.422 150.108C114.493 152.493 116.002 153.928 117.948 154.415C119.846 154.853 121.209 154.683 122.036 153.904C122.912 153.028 123.74 151.665 124.518 149.816C124.713 149.281 124.908 148.721 125.102 148.137C125.443 147.066 125.735 145.923 125.978 144.706C125.978 144.219 126.003 143.708 126.051 143.173C126.1 139.085 126.222 135.751 126.416 133.172C126.368 132.977 126.319 132.758 126.27 132.515C126.27 132.272 126.27 131.834 126.27 131.201C126.319 130.568 126.416 130.057 126.562 129.668C126.757 129.23 127.122 128.889 127.657 128.646C128.193 128.354 128.85 128.305 129.628 128.5C130.504 128.695 131.088 129.011 131.38 129.449C131.721 129.887 131.843 130.276 131.745 130.617L131.599 131.128C131.794 132.588 131.77 135.216 131.526 139.012C131.38 141.202 131.088 143.295 130.65 145.29ZM161.194 154.05C160.95 153.32 160.658 152.76 160.318 152.371C159.831 151.884 158.931 151.349 157.617 150.765C156.205 150.084 154.672 149.573 153.018 149.232C151.412 148.843 149.903 148.672 148.492 148.721C147.324 148.77 146.253 149.086 145.28 149.67C144.355 150.205 143.601 151.033 143.017 152.152C142.433 153.271 142.116 154.147 142.068 154.78C142.068 155.267 142.262 155.948 142.652 156.824C143.041 157.554 143.868 158.211 145.134 158.795C146.642 159.476 148.443 160.012 150.536 160.401C152.58 160.693 154.502 160.669 156.303 160.328C158.201 159.987 159.636 159.549 160.61 159.014L160.902 158.868C160.95 158.284 160.999 157.554 161.048 156.678C161.096 155.899 161.145 155.023 161.194 154.05ZM160.829 163.978C159.807 164.319 158.614 164.635 157.252 164.927C154.867 165.414 152.385 165.438 149.806 165C147.275 164.562 145.061 163.905 143.163 163.029C140.973 162.007 139.44 160.644 138.564 158.941C137.688 157.335 137.298 155.851 137.396 154.488C137.493 153.174 138.004 151.641 138.929 149.889C139.902 148.088 141.216 146.677 142.871 145.655C144.525 144.633 146.35 144.098 148.346 144.049C150.146 144 152.044 144.195 154.04 144.633C156.035 145.12 157.884 145.752 159.588 146.531C160.074 146.774 160.561 147.018 161.048 147.261C160.902 145.509 160.61 143.781 160.172 142.078C159.588 139.693 158.809 137.868 157.836 136.603C156.96 135.581 156.254 135.046 155.719 134.997C155.037 134.9 154.064 135.167 152.799 135.8C151.533 136.384 150.633 137.163 150.098 138.136C149.757 138.769 149.514 139.255 149.368 139.596V139.815C149.514 140.448 149.416 141.032 149.076 141.567C148.784 142.102 148.321 142.467 147.689 142.662C147.056 142.808 146.448 142.711 145.864 142.37C145.328 142.029 144.988 141.543 144.842 140.91L144.696 140.326C144.647 140.034 144.623 139.742 144.623 139.45C144.623 139.158 144.623 138.915 144.623 138.72C144.671 138.477 144.744 138.209 144.842 137.917C144.988 137.625 145.109 137.406 145.207 137.26C145.304 137.114 145.426 136.895 145.572 136.603C145.766 136.262 145.912 136.019 146.01 135.873C147.032 134.024 148.613 132.588 150.755 131.566C152.896 130.544 154.745 130.13 156.303 130.325C158.103 130.568 159.807 131.688 161.413 133.683C162.873 135.484 163.968 137.917 164.698 140.983C165.428 143.854 165.817 146.75 165.866 149.67C165.866 151.033 165.866 152.298 165.866 153.466C166.158 154.926 166.231 156.678 166.085 158.722C165.939 160.961 165.695 162.469 165.355 163.248C165.355 163.345 165.33 163.491 165.282 163.686C165.282 163.832 165.184 164.075 164.99 164.416C164.844 164.757 164.649 165.024 164.406 165.219C164.162 165.414 163.797 165.487 163.311 165.438C162.824 165.389 162.264 165.17 161.632 164.781L160.829 163.978ZM172.85 131.274C173.288 130.787 173.824 130.544 174.456 130.544C175.089 130.495 175.649 130.69 176.135 131.128C176.622 131.566 176.89 132.101 176.938 132.734V133.172C176.938 133.318 176.938 133.537 176.938 133.829C178.009 132.904 179.055 132.15 180.077 131.566C181.683 130.593 183.338 130.13 185.041 130.179C186.599 130.228 187.815 130.447 188.691 130.836C189.567 131.274 190.443 132.053 191.319 133.172C192.147 134.145 192.877 135.435 193.509 137.041C194.093 138.598 194.531 140.229 194.823 141.932C195.067 143.538 195.213 144.803 195.261 145.728C195.359 146.604 195.407 147.796 195.407 149.305C195.456 150.765 195.432 152.103 195.334 153.32C195.286 154.488 195.237 155.51 195.188 156.386C195.091 157.213 195.042 157.968 195.042 158.649C195.042 159.428 195.018 160.06 194.969 160.547C194.969 160.985 194.945 161.374 194.896 161.715V162.372C194.848 163.005 194.58 163.54 194.093 163.978C193.607 164.416 193.047 164.611 192.414 164.562C191.782 164.513 191.246 164.27 190.808 163.832C190.37 163.345 190.176 162.761 190.224 162.08V161.496C190.273 161.107 190.297 160.693 190.297 160.255C190.346 159.817 190.37 159.257 190.37 158.576C190.37 157.797 190.419 156.97 190.516 156.094C190.565 155.218 190.614 154.196 190.662 153.028C190.76 151.957 190.784 150.741 190.735 149.378C190.735 148.015 190.687 146.945 190.589 146.166C190.541 145.339 190.395 144.171 190.151 142.662C189.957 141.251 189.616 139.937 189.129 138.72C188.691 137.601 188.229 136.725 187.742 136.092C187.256 135.508 186.891 135.167 186.647 135.07C186.404 134.924 185.82 134.851 184.895 134.851C184.117 134.802 183.314 135.021 182.486 135.508C181.464 136.189 180.345 137.065 179.128 138.136C178.009 139.207 177.328 139.937 177.084 140.326C176.938 140.521 176.841 140.715 176.792 140.91C176.744 141.786 176.695 142.759 176.646 143.83C176.549 146.507 176.5 149.183 176.5 151.86C176.5 154.537 176.549 156.702 176.646 158.357C176.744 160.06 176.817 161.155 176.865 161.642V162.226C176.914 162.907 176.695 163.491 176.208 163.978C175.77 164.416 175.235 164.659 174.602 164.708C173.97 164.708 173.41 164.489 172.923 164.051C172.485 163.613 172.242 163.078 172.193 162.445V161.788C172.145 161.399 172.072 160.352 171.974 158.649C171.877 156.897 171.828 154.634 171.828 151.86C171.828 149.135 171.877 146.385 171.974 143.611C172.023 143.173 172.047 142.759 172.047 142.37C171.95 142.078 171.926 141.762 171.974 141.421L172.047 140.545C172.096 140.448 172.12 140.35 172.12 140.253C172.169 138.988 172.218 137.795 172.266 136.676C172.266 134.827 172.266 133.756 172.266 133.464V132.953C172.218 132.32 172.412 131.761 172.85 131.274Z" fill="#A96191"/>
<path d="M117.944 115.942C117.944 116.069 117.944 116.195 117.944 116.322C117.893 117.107 117.881 117.969 117.906 118.906C117.957 119.843 118.02 120.819 118.096 121.832C118.197 122.871 118.299 123.884 118.4 124.872C118.476 125.809 118.577 126.506 118.704 126.962L118.894 127.722C118.97 128.051 118.919 128.355 118.742 128.634C118.565 128.938 118.311 129.128 117.982 129.204C117.678 129.28 117.374 129.229 117.07 129.052C116.791 128.875 116.614 128.621 116.538 128.292L116.348 127.532C116.196 126.975 116.069 126.164 115.968 125.1C115.867 124.112 115.778 123.099 115.702 122.06C115.601 120.996 115.525 119.97 115.474 118.982C115.474 118.399 115.474 117.842 115.474 117.31C114.891 117.513 114.271 117.652 113.612 117.728C112.447 117.829 111.269 117.5 110.078 116.74C109.419 116.309 108.951 115.765 108.672 115.106C108.419 114.422 108.406 113.7 108.634 112.94C108.913 112.028 109.47 111.243 110.306 110.584C109.293 110.153 108.799 109.482 108.824 108.57C108.849 107.962 109.065 107.468 109.47 107.088C109.901 106.708 110.458 106.366 111.142 106.062C112.434 105.505 113.802 105.391 115.246 105.72C115.677 105.821 116.044 105.923 116.348 106.024C116.449 104.884 116.563 103.693 116.69 102.452L116.88 100.628C116.931 100.299 117.083 100.033 117.336 99.83C117.615 99.602 117.919 99.5133 118.248 99.564C118.577 99.5893 118.843 99.7413 119.046 100.02C119.249 100.273 119.337 100.565 119.312 100.894L119.122 102.718C118.97 103.959 118.856 105.125 118.78 106.214C118.729 107.05 118.615 107.645 118.438 108C118.286 108.279 118.033 108.494 117.678 108.646C117.323 108.798 116.905 108.773 116.424 108.57C116.196 108.469 115.626 108.317 114.714 108.114C113.802 107.886 112.928 107.949 112.092 108.304C111.965 108.355 111.851 108.405 111.75 108.456C111.801 108.481 111.839 108.494 111.864 108.494C112.801 108.671 113.523 108.722 114.03 108.646C114.157 108.646 114.258 108.621 114.334 108.57C114.41 108.519 114.486 108.494 114.562 108.494C114.638 108.494 114.815 108.532 115.094 108.608C115.322 108.684 115.461 108.823 115.512 109.026C115.588 109.203 115.588 109.406 115.512 109.634C115.436 109.837 115.335 110.052 115.208 110.28C115.107 110.483 115.005 110.66 114.904 110.812L114.714 111.04C114.435 111.091 113.739 111.407 112.624 111.99C111.712 112.446 111.155 113.003 110.952 113.662C110.876 113.89 110.863 114.08 110.914 114.232C110.965 114.359 111.129 114.511 111.408 114.688C112.117 115.144 112.789 115.347 113.422 115.296C114.131 115.22 114.815 115.017 115.474 114.688C115.601 114.612 115.727 114.536 115.854 114.46C115.981 114.207 116.145 114.004 116.348 113.852C116.449 113.827 116.703 113.801 117.108 113.776C117.513 113.751 117.881 113.865 118.21 114.118C118.539 114.371 118.615 114.739 118.438 115.22C118.362 115.473 118.197 115.714 117.944 115.942Z" fill="#A96191"/>
</svg>
